<svg width="0" height="0" class="hidden">
  <symbol stroke="#b0f7ff" fill="none" xmlns="http://www.w3.org/2000/svg" viewBox="0 0 15.2 15.2" id="cm">
    <path d="M10 3.8S10.3.4 6.2.4H3.7S1 .4.4 2.6v6.1c0 .4.6 2.4 3.5 2.4"></path>
    <path d="M14.7 6.8v6.3c0 1.7-1.6 1.6-1.6 1.6H6.7c-1.4 0-1.5-.8-1.5-.8v-3.4c0-1.7 1.2-1.6 1.2-1.6h6.2c1.5 0 2.1-.7 2.1-2.1s-1.4-1.7-1.4-1.7H4C2.1 5.1.8 3.7.8 3.7l-.4-.5m8.5 7.6V9m3.6 1.8V8.9"></path>
    <ellipse cx="5.2" cy="2.9" rx="1" ry=".4"></ellipse>
  </symbol>
  <symbol xmlns="http://www.w3.org/2000/svg" viewBox="0 0 36.711 36.711" id="fb">
    <path fill="#FFF" d="M36.711 34.686a2.025 2.025 0 01-2.026 2.025H25.33V22.495h4.771l.715-5.541H25.33v-3.537c0-1.604.445-2.696 2.746-2.696l2.934-.001V5.764c-.508-.067-2.249-.219-4.275-.219-4.23 0-7.127 2.582-7.127 7.323v4.086h-4.784v5.541h4.784v14.216H2.026A2.025 2.025 0 010 34.686V2.026C0 .907.907 0 2.026 0h32.659c1.119 0 2.026.907 2.026 2.026v32.66z"></path>
  </symbol>
  <symbol xmlns="http://www.w3.org/2000/svg" viewBox="0 -4 511.997 511" id="grape">
    <path d="M350.8 271.742c46.083-31.781 35.243-110.89-19.94-126.097-3.919-1.083-19.442-.493-21.325-2.282-3.144-2.984-4.996-17.289-7.418-21.734-6.906-12.688-17.902-22.899-30.89-29.16-27.036-13.031-59.72-7.41-79.856 15.144-19.398-26.258-53.281-34.222-82.586-20.097-12.98 6.257-24.207 16.328-31.5 28.785a66.83 66.83 0 00-7.87 20.633c-1.75 8.738.476 16.734-.204 25.242-.473 5.879.883 4.691-5.543 7.156a66.306 66.306 0 00-10.508 5.156c-7.402 4.477-13.82 10.38-19 17.301-9.914 13.246-15.035 29.926-14.492 46.45.25 7.542 1.672 15.073 4.281 22.156a69.045 69.045 0 005.75 11.918c.965 1.59 3.309 4.042 3.817 5.613 1.472 4.566 1.547.949-.692 5.304-4.207 8.188-11.879 14.122-15.617 23.192a73.353 73.353 0 00-5.52 28.855c.114 9.282 1.965 18.543 5.583 27.102 1.722 4.078 4.511 7.629 6.293 11.598 1.5 3.347 2.722 2.964 1.921 5.843-.363 1.313-5.988 5.45-6.812 6.332C6.39 399.332-.128 417.242 0 435.187c.281 38.739 32.188 71.262 71.46 69.215 17.638-.918 34.716-8.703 46.747-21.672 1.781-1.918 6.723-11.242 8.797-11.875 1.691-.52 10.437 4.008 12.207 4.473 9.258 2.414 18.926 2.7 28.336 1.031 17.488-3.105 33.535-13.132 43.969-27.507 2.863-3.946 4.488-8.778 7.27-12.641.655-.906 1.175-4.738 2.066-5.203.437-.23 6.539 1.785 7.773 2.027 10.25 2.012 20.977 1.504 31.023-1.316 10.657-2.989 20.532-8.574 28.61-16.125 2.219-2.078 8.922-12.953 11.36-13.785 2.75-.942 11.859 3.152 15.066 3.507 21.214 2.344 42.8-6.078 57.367-21.558 31.804-33.801 20.949-92.274-21.25-112.016 2.71-1.87 5.422-3.738 8.133-5.61-2.711 1.872-5.422 3.74-8.133 5.61zm-56.327-71.715c2.468-2.886 4.968-6.304 6.668-9.714a56.47 56.47 0 001.64-3.075c2.426-4.863 4.36-9.922 5.625-15.218 1.746-7.286.176-8.356 7.45-8.977 6.874-.586 15.187 2.766 20.976 6.242 11.523 6.914 19.05 18.969 22.02 31.906 2.882 12.582 1.64 26.414-4.364 37.934-3.226 6.188-7.804 11.613-13.46 15.719-1.876 1.363-18.622 9.394-18.622 7.629.02-.328.032-.66.032-.996.058-2.352.011-4.793-.208-7.141-.02-.356-.05-.711-.09-1.066 0-.047-.007-.098-.007-.157-2.149-20.437-12.485-39.195-29.418-51l1.758-2.086c.297-.347-.559.707 0 0 2.527-2.957-.559.707 0 0zm-1.426 29.68c.156.195.297.383.422.582 2.476 3.473 4.453 7.29 5.969 11.27.175.453.343.906.492 1.367.078.187.136.375.195.562.11.305.207.61.297.926 1.101 3.195 1.59 6.586 2.066 9.918.047.473.098.945.125 1.422.032.226.04.453.051.68.04.453.059.906.078 1.359.012.105.012.227.012.332.203 4.273.086 9.457-1.277 13.555-.09.386-.149.761-.18 1.144-7.16 17.227-18.168 32.535-37.43 36.625-.012 0-.031.012-.039.012-12.039 2.57-26.516.398-36.527-7.121a35.358 35.358 0 01-2.29-1.625c-.011-.012-.03-.024-.038-.031-20.551-15.622-24.305-43.797-12.09-65.836 12.66-22.836 35.668-29.559 59.527-21.582a42.14 42.14 0 011.543.691c.012 0 .024 0 .031.008.5.238 1.004.472 1.496.73.086.04.176.09.266.13a45.138 45.138 0 014.149 2.41 49.584 49.584 0 013.57 2.535 42.216 42.216 0 013.152 2.687c.188.156.367.324.543.504 1.297 1.125 5.45 6.137 5.887 6.746.156.195-.57-.797 0 0zM188.05 240.563a66.479 66.479 0 00-1.547 6.746c-14.211.386-26.781-5.95-36.606-15.82-6.125-6.68-10.351-14.934-12.222-23.868-9.356-24.418 13.308-54.101 36.094-59.824-2.575 24.976 8.878 50.527 29.41 65.035-7.082 7.988-12.325 17.598-15.18 27.887.398-1.426.813-2.848 1.203-4.278-.383 1.375-.77 2.75-1.152 4.121-.633 2.215 2.887-10.304 0 0zm14.59 65.98h-.012v.012c-11.336 7.996-21.535 20.425-25.395 33.976h-.011a59.829 59.829 0 01-4.79-1.379c-4.523-1.511-9.413-1.847-14.156-1.933a81.46 81.46 0 00-5.695.082 25.903 25.903 0 01-4.422.383 18.06 18.06 0 00-3.55.53c-.079.013-.169.02-.247.04-.504.2-1.02.297-1.543.297-16.37-8.946-27.152-27.352-26.222-46.063v-.129c.023-.515.047-1.03.066-1.546 0-.06 0-.118.012-.168.02-.383.05-.758.078-1.133 0-.047.012-.098.012-.149.125-1.414.246-3.27.609-4.726a46.744 46.744 0 011.328-5.606c.02-.058.04-.129.059-.187.02-.117.058-.227.097-.344.973-3.453 2.461-6.41 4.04-9.574a51.202 51.202 0 012.558-4.168c2.617-4.008 5.93-7.602 9.676-10.582a12.771 12.771 0 013.578-2.66c.41-.286.824-.559 1.246-.817.297-.195.594-.375.887-.55l.011.007c12.407 10.887 28.149 16.867 44.57 16.867h.294c.316 3.813.746 9.344 2.476 12.817.203.722.422 1.441.66 2.156.02.066.051.129.07.195a83.4 83.4 0 00.747 2.168c2.95 8.125 7.344 15.61 12.969 22.184zm-3.461-176.004c.039-.09.086-.18.129-.266.007-.02.027-.05.039-.07 23.855-43.656 90.925-24.195 91.457 24.293 0 .106 0 .227.011.336v.145c0 11.613-3.996 22.808-11.05 31.957-.059.07-.11.136-.168.207-1.641 2.078-3.496 4.011-5.446 5.793-13.254-4.348-31.418-5.102-44.257 1.34-1.856.69-9.208 5.398-10.856 5.308-2.586-.14-6.59-4.363-8.371-5.895a50.42 50.42 0 01-13.406-18.21c-.032-.079-.059-.157-.098-.235-6.047-14.27-4.586-32.512 1.695-44.117-.57 1.059-.464.86.32-.586.04-.09-1.523 2.816 0 0zm-62.465-31.05c17.972 0 34.375 10.187 42.898 26.28a6.78 6.78 0 00-.218.485c-.106.226-.208.453-.305.687-34.934 3.262-61.77 34.563-62.2 69.204-4.027-1.7-7.953-4.211-11.206-7.133a21.71 21.71 0 01-1.063-.926c-36.133-27.125-10.605-88.598 32.094-88.598zm-59.043 86.163c.058.11.129.23.195.328 1.203 2.09 3.016 5.418 4.828 7.23.266.364.551.727.836 1.083.176.238.364.465.563.691.261.336.527.66.812.996 0 .008 0 .008.012.008 5.32 6.43 12.371 12.551 19.957 16.188 3.96 2.133 12.105 3.148 15.215 5.898 3.16 2.801 5.297 12.965 7.836 16.965-3.453 2.125-6.684 4.86-9.551 7.73-.156.141-.313.29-.46.446-.274.254-.54.52-.798.797-4.633 4.64-8.441 9.968-11.601 15.703-.047.078-.086.168-.125.246-.98.84-1.47 1.8-1.465 2.875a31.494 31.494 0 01-.719 1.547c-.012.02-.02.031-.02.05a62.739 62.739 0 00-1.93 4.727c-.464 1.281-1.054 2.723-1.347 4.078-.12.395-.234.793-.344 1.192-.117.383-.222.77-.312 1.164-.04.125-.07.254-.098.383-.09.304-.168.609-.238.914-.008.058-.027.109-.04.168-.538 2.226-.726 4.543-1.276 6.757-.008.051-.008.09-.02.141-.012.035-.012.078-.012.117-.02.078-.02.156-.027.235l-.031.238h-.008c-.535.078-1.067.18-1.594.305-3.851.64-7.926.949-11.808.543-.04 0-.09-.012-.13-.012-.472-.04-.945-.078-1.406-.13a1.38 1.38 0 00-.273-.026 52.051 52.051 0 01-11.82-2.957 48.279 48.279 0 01-5.239-2.434 27.759 27.759 0 00-2.683-1.547c-.5-.309-.992-.629-1.477-.965-.375-.254-.758-.511-1.133-.777a.17.17 0 00-.058-.04 92.006 92.006 0 00-2.93-2.284c-30.484-25.618-18.883-79.899 20.719-88.57-.164-.301-8.637 1.874-9.805 2.171 3.242-.82 6.543-1.457 9.805-2.172.058.11-22.184 4.86 0 0zM50.445 293.914c3.45 2.293 10.075 7.25 14.317 7.25 6.058 2.16 12.68 3.754 19.133 3.961h.011c3.223.21 6.989.465 10.188-.176 2.422-1.508 3.629-1.648 3.625-.426 1.586 10.325 5.508 22.82 12.527 30.856 0 .008.012.02.012.02 3.082 4.296 6.578 8.265 10.605 11.703.04.027.07.066.121.097-10.066 6.164-29.027 22.676-29.027 35.906-2.344.586-4.777 1.079-7.195 1.282-.2.031-.395.047-.59.058-48.23 4.403-70.79-61.472-33.727-90.53.082.054-4.5 4.78-5.183 4.327-.117-.078 6.648-5.476 5.183-4.328 1.621 1.078-12.074 9.469 0 0zm17.778 191.277c-25.399 0-44.797-20.144-47.828-44.695-1.418-11.516.777-23.445 6.878-33.383 2.508-4.082 7.153-11.394 11.809-12.976 5.48-1.864 15.688 5.355 22.27 7.558 7.23 2.067 15.125 3.2 22.66 2.512 1.273-.11 2.543-.219 3.816-.324-.5 8.488.559 17.734 3.461 25.738 1.094 3.477 2.402 7.313 4.336 10.41 2.621 5.156 5.883 10.485 9.988 14.602 5.043 5.828 5.586 5.527.575 11.922a49 49 0 01-10.024 9.586c-8.14 5.847-17.902 9.05-27.941 9.05zm136.234-69.343c0 .02-.008.03-.008.05-6.219 37.97-52.851 55.196-81.02 28.325-12.667-12.078-20.038-30-15.413-47.32 4.37-16.372 17.836-35.817 36.12-38.434 9.079-2.41 27.536-3.188 34.966 4.254.02.011.03.02.05.03h.008c.012 0 .012.013.02.013 18.82 10.324 28.511 33.73 25.382 52.476.168-1.027.137-.824-.105.606 0 .02.465-2.766 0 0zm37.316-1.192c-5.84 0-11.64-1.082-17.082-3.172.157-2.699.286-5.816-.02-8.55-.171-2.93-.648-5.786-1.062-8.688a94.884 94.884 0 00-.363-1.832c-.008-.02-.008-.039-.02-.059a39.178 39.178 0 00-.355-1.585c-.008-.051-.02-.09-.027-.141-2.461-9.25-7.524-24.965-16.008-30.645a35.375 35.375 0 00-1.219-1.332 11.932 11.932 0 00-.648-.68c-2.969-3.202-6.418-5.988-9.961-8.519.031-.11.058-.207.097-.305.079-.296.168-.582.266-.867a43.245 43.245 0 013.863-8.984 45.503 45.503 0 018.555-11.406c.266-.278.54-.543.816-.797.254-.258.512-.496.778-.73.215-.208.441-.403.668-.59.117-.122.234-.227.355-.317.235-.207.461-.402.696-.59 2.148-1.879 4.609-3.547 7.109-4.937 10.84 6.789 23.082 10.195 35.86 10.265-.012.13-.02.266-.04.407-.648 9.984.805 20.027 4.207 29.43 1.903 5.257 7.082 19.085 12.606 21.863.148.175.297.355.46.53 0 .013.012.032.04.04l.011.012c.305.355.618.707.946 1.05v.012a63.405 63.405 0 006.422 6.207c4.273 1.469 4.648 3.492 1.129 6.067-1.461 3.683-6.993 7.433-10.102 9.675-8.137 5.871-17.91 9.168-27.977 9.168zm80.633-28.554c-30.46 0-52.781-29.754-48.168-59.047 8.887-2.805 20.192-8.047 26.164-15.535a61.774 61.774 0 002.036-2.012c.117-.106.226-.215.324-.332a53.862 53.862 0 002.652-2.938c.266-.297.512-.59.758-.894a5.42 5.42 0 00.305-.367c1.464-1.766 3.55-4.2 4.62-6.344 2.551-3.863 4.81-8.13 6.43-12.469.121-.266.22-.543.325-.82 27.906-2.739 52.414 20.898 53.363 48.39.937 27.192-21.078 52.368-48.809 52.368zm113.758-241.637c-5.43 0-9.836-4.41-9.836-9.852 0-5.437 4.399-9.847 9.828-9.847h.008c5.434 0 9.832 4.41 9.832 9.847 0 5.442-4.398 9.852-9.832 9.852zm0 0"></path>
    <path d="M507.773 167.695c-8.789-36.222-35.16-67.203-78.43-92.183 6.223-9.453 38.348-71.063 15.485-74.86-13.91-2.308-13.836 21.903-16.43 30.493-4.378 14.5-10.918 28.492-20.304 40.437-.008 0-.008 0-.02.008-18.23 23.918-48.547 37.472-78.312 37.472-8.422-.457-13.559 10.086-7.871 16.395 3.921 4.352 10.558 3.426 15.78 3.094 19.243-1.211 38.54-7.29 54.977-17.36-18.984 70.297 27.625 122.895 83.114 158.52 0 0 .008.012.02.012.097.058.187.117.292.175 1.621 1.004 3.903 1.543 5.762 1.332a2.3 2.3 0 00.453-.05c.36-.035.711-.098 1.063-.188.605-.12 1.226-.367 1.789-.62.07-.02.136-.06.199-.09a1.14 1.14 0 00.195-.098c1.371-.688 2.563-1.727 3.473-2.965l.117-.157c1.293-1.863 31.578-46.093 18.648-99.367-8.789-36.222 12.93 53.274 0 0zm-24.511 67.578c-5.246-16.757-10.543-33.507-16.219-50.125-2.734-8.02-6.074-27.601-16.594-28.785-17.172-1.925-7.844 18.512-5.054 26.317 6.39 17.87 12.035 36.03 17.73 54.129-22.129-17.11-43.281-38.657-51.746-66.043-8.176-26.457-1.586-53.082 8.336-78.086 52.07 30.136 87.254 81.43 63.547 142.593-8.2-26.195 0 0 0 0zm0 0"></path>
  </symbol>
  <symbol fill="none" xmlns="http://www.w3.org/2000/svg" viewBox="0 0 65 69" id="happy">
    <path d="M60.03 19.665c.69-.69 1.38-1.38 1.725-2.07 2.415-3.105 2.07-4.485-.345-6.555-2.415-2.07-6.21 1.035-6.21 1.035l-.69.69c-3.795-3.45-8.625-6.21-14.145-7.59C38.295 2.07 35.19 0 31.74 0c-3.795 0-6.9 2.415-8.97 5.52-4.485 1.38-8.625 3.795-12.075 6.9-.69-.345-2.07-1.725-3.795-2.07-2.415-.345-4.83 1.38-5.175 3.795 0 1.38 1.38 3.45 3.105 5.52C1.725 24.495 0 30.015 0 36.225 0 53.82 14.49 68.31 32.43 68.31c6.21 0 12.42-1.725 17.25-4.83l-1.035-2.415c-4.485-11.385-3.45-18.63-3.105-22.08 1.035-3.795 4.83-8.97 6.9-11.73 1.38-1.725 3.45-3.45 5.52-5.52 2.76 4.14 4.14 8.97 4.14 14.49 0 7.935-3.45 15.18-8.625 20.7l2.07 1.725c5.865-5.865 9.315-13.8 9.315-22.425 0-6.21-1.725-11.73-4.83-16.56zM31.74 2.76c4.485 0 7.935 4.14 7.935 9.315s-3.45 9.315-7.935 9.315c-4.485 0-7.935-3.795-7.935-9.315s3.45-9.315 7.935-9.315zm0 21.39c5.865 0 10.695-5.52 10.695-12.075 0-1.38-.345-2.415-.69-3.795 4.14 1.38 7.59 3.45 10.695 6.21-2.76 2.415-6.9 5.52-8.97 6.9-3.105 2.415-8.28 4.83-12.42 4.83-4.14 0-6.21-1.725-9.315-3.105-2.76-1.38-7.245-6.555-9.315-8.625 2.76-2.415 5.865-4.14 8.97-5.52 0 1.035-.345 2.07-.345 3.105 0 6.9 4.83 12.075 10.695 12.075zM2.76 36.225c0-5.175 1.38-10.005 3.795-14.49L7.59 22.77s8.625 10.005 10.35 12.42c1.725 2.415-.345 4.14-1.725 10.35-1.035 4.83-1.035 11.385-1.035 14.49C7.59 54.51 2.76 45.885 2.76 36.225zm53.475-16.56c-1.38 1.38-6.21 5.52-10.35 12.075s-3.45 11.73-3.105 15.525c.345 3.795 1.38 7.245 1.725 8.625.345 1.035 1.725 4.83 2.07 5.865-4.14 2.07-8.97 3.45-13.8 3.45-5.52 0-10.35-1.38-14.835-3.795 0-11.73.69-13.455 1.035-15.18 0-1.725 1.035-5.175 2.07-7.935.69-2.415-.345-4.485-1.38-5.52C18.63 31.74 8.625 19.665 6.9 17.25c-2.07-2.415-2.415-3.45-.69-4.14 1.725-1.035 6.21 4.485 8.28 6.9 1.725 2.415 9.66 8.97 16.905 8.625 7.245-.345 12.42-4.14 14.49-5.52 1.725-1.38 10.695-8.625 12.075-9.66 1.38-1.035 3.105 0 2.76 1.035-.345 1.035-3.105 3.795-4.485 5.175z" fill="#292929"></path>
  </symbol>
  <symbol xmlns="http://www.w3.org/2000/svg" viewBox="0 0 36.663 36.664" id="inst">
    <path fill="#FFF" d="M32.305 0H4.357A4.352 4.352 0 000 4.349v27.967c0 2.4 1.95 4.348 4.357 4.348h27.947a4.353 4.353 0 004.358-4.348V4.349A4.351 4.351 0 0032.305 0m-5.953 5.729c0-.632.513-1.146 1.146-1.146h3.438c.632 0 1.145.514 1.145 1.146v3.438c0 .633-.513 1.146-1.145 1.146h-3.438a1.146 1.146 0 01-1.146-1.146V5.729zm-7.978 5.612c3.894 0 7.051 3.149 7.051 7.033 0 3.885-3.157 7.034-7.051 7.034s-7.051-3.148-7.051-7.034c0-3.884 3.157-7.033 7.051-7.033M33.226 32.08c0 .633-.513 1.146-1.146 1.146H4.583a1.147 1.147 0 01-1.146-1.146V14.895H8.02c-.597.858-.798 2.462-.798 3.479 0 6.135 5.003 11.127 11.152 11.127s11.153-4.992 11.153-11.127c0-1.018-.145-2.596-.885-3.479h4.583V32.08z"></path>
  </symbol>
  <symbol fill="none" xmlns="http://www.w3.org/2000/svg" viewBox="0 0 64 64" id="lovely">
    <path d="M32 0C14.431 0 0 14.431 0 32c0 17.569 14.431 32 32 32 17.569 0 32-14.431 32-32C64 14.431 49.569 0 32 0zm0 61.49C15.686 61.49 2.51 48.314 2.51 32S15.686 2.51 32 2.51 61.49 15.686 61.49 32 48.314 61.49 32 61.49z" fill="#292929"></path>
    <path d="M32 48.627c-10.98 0-17.569-9.725-17.569-9.725l-2.196 1.569C21.02 51.765 32 51.45 32 51.45s10.98.627 19.765-10.98l-2.196-1.569S42.98 48.627 32 48.627zM21.333 35.451c7.53-3.451 8.785-7.843 8.785-10.04 0-2.509-1.569-5.333-4.392-5.333-3.138 0-4.393 1.57-4.393 1.57s-1.255-1.57-4.392-1.57c-2.823 0-4.392 3.138-4.392 5.334 0 2.196 1.255 6.588 8.784 10.039zm0-10.667c1.569-2.51 5.961-2.823 6.275.314 0 4.392-6.275 7.53-6.275 7.53s-6.274-3.138-6.274-7.53c.314-3.137 4.706-2.823 6.274-.314zm21.334 10.667c7.53-3.451 8.784-7.843 8.784-9.726 0-2.51-1.569-5.333-4.392-5.333-3.137 0-4.392 1.569-4.392 1.569s-1.255-1.569-4.392-1.569c-2.824 0-4.393 3.137-4.393 5.334 0 1.882 1.255 6.274 8.785 9.725zm0-10.667c1.568-2.51 5.96-2.823 6.274.314 0 4.392-6.274 7.53-6.274 7.53s-6.275-3.138-6.275-7.53c.314-3.137 4.706-2.823 6.275-.314z" fill="#292929"></path>
  </symbol>
  <symbol xmlns="http://www.w3.org/2000/svg" viewBox="0 0 46 57" id="marker">
    <path d="M23 0C15 0 0 6 0 23s23 34 23 34 23-17 23-34S31 0 23 0z" fill="#0f5a47"></path>
    <path d="M8.8 17.5c0-1.3.4-2.5 1.3-3.4.9-.9 2-1.3 3.3-1.3 1.4 0 2.5.4 3.4 1.2l-.6 1c-.3-.3-.7-.5-1.2-.7s-1-.3-1.4-.3c-1 0-1.9.3-2.5 1-.6.7-.9 1.5-.9 2.5s.3 1.9.9 2.6 1.5 1.1 2.5 1.1c.5 0 1-.1 1.5-.3.5-.2.9-.5 1.3-.9l.7.9c-1 1-2.2 1.5-3.5 1.5s-2.5-.5-3.4-1.4c-1-1-1.4-2.2-1.4-3.5zm9.8 4.6v-9.2h1.3v4h4.8v-4H26v9.2h-1.3v-4h-4.8v4h-1.3zm9.2-4.7c0-1.3.4-2.4 1.3-3.3.9-.9 2-1.3 3.4-1.3s2.5.4 3.4 1.3c.9.9 1.3 2 1.3 3.3 0 1.4-.4 2.5-1.3 3.4s-2 1.4-3.4 1.4-2.5-.5-3.4-1.4c-.8-.9-1.3-2-1.3-3.4zm1.3 0c0 1 .3 1.9 1 2.6s1.5 1 2.4 1c1 0 1.8-.3 2.4-1 .6-.7 1-1.6 1-2.6s-.3-1.8-1-2.5c-.6-.7-1.4-1-2.4-1s-1.8.3-2.4 1c-.6.7-1 1.5-1 2.5zM9.2 29.5c0-1.3.4-2.5 1.3-3.4.9-.9 2-1.3 3.3-1.3 1.4 0 2.5.4 3.4 1.2l-.6 1c-.3-.3-.7-.5-1.2-.7s-1-.3-1.4-.3c-1 0-1.9.3-2.5 1-.6.7-.9 1.5-.9 2.5s.3 1.9.9 2.6 1.5 1.1 2.5 1.1c.5 0 1-.1 1.5-.3.5-.2.9-.5 1.3-.9l.7.9c-1 1-2.2 1.5-3.5 1.5s-2.5-.5-3.4-1.4c-1-1-1.4-2.2-1.4-3.5zm9.1 0c0-1.3.4-2.5 1.3-3.4.9-.9 2-1.3 3.3-1.3 1.4 0 2.5.4 3.4 1.2l-.7 1c-.3-.3-.7-.5-1.2-.7s-1-.3-1.4-.3c-1 0-1.9.3-2.5 1-.6.7-.9 1.5-.9 2.5s.3 1.9.9 2.6 1.5 1.1 2.5 1.1c.5 0 1-.1 1.5-.3.5-.2.9-.5 1.3-.9l.7.9c-1 1-2.2 1.5-3.5 1.5-1.4 0-2.5-.5-3.4-1.4-.9-1-1.3-2.2-1.3-3.5zm9.1-.1c0-1.3.4-2.4 1.3-3.3.9-.9 2-1.3 3.4-1.3s2.5.4 3.4 1.3c.9.9 1.3 2 1.3 3.3 0 1.4-.4 2.5-1.3 3.4s-2 1.4-3.4 1.4-2.5-.5-3.4-1.4c-.9-.9-1.3-2-1.3-3.4zm1.3 0c0 1 .3 1.9 1 2.6s1.5 1 2.4 1c1 0 1.8-.3 2.4-1 .6-.7 1-1.6 1-2.6s-.3-1.8-1-2.5c-.6-.7-1.4-1-2.4-1s-1.8.3-2.4 1c-.7.7-1 1.5-1 2.5z"></path>
  </symbol>
  <symbol xmlns="http://www.w3.org/2000/svg" viewBox="0 0 22.3 18.9" id="muscle">
    <path d="M7.3 11.6c-.3-.7-.9-2-1.7-2.7-1.2-1-2.1-2.4-2.5-3.8 0-.5.3-1 1-1.2 0 0 .2 1 .7 1s.8-.2 1.4-.9c.6-.7.7-.8.7-.8s.5-.8 0-1.2S5.1.7 5.1.7 4.5.5 4.2.5s-.9 0-1.4.5C2.2 1.4 1 2.6 1 2.6s-.6.8-.6 1.9c0 1.2.4 4.8.4 4.8s.5 2.5 1.1 4.1c.6 1.6 1.9 3.3 3.1 4.3.4.4.9.7 1.1.7.6 0 1.4-.6 2.1-.6.7 0 2.1.6 3.4.6s5.3-.9 6.8-5.8c0 0 3.5-.8 3.5-4.5s-3.1-4.6-4.4-4.6-4.5.9-4.5 4.2v.6s-.7-.5-1.8-.5-3.4.7-3.6 3.7l-.3.1z" fill="none" stroke="#000" stroke-width=".75" stroke-miterlimit="10"></path>
  </symbol>
  <symbol xmlns="http://www.w3.org/2000/svg" viewBox="0 0 498.613 498.613" id="nut">
    <path d="M450.231 117.215a7.498 7.498 0 00-10.449-1.816 7.499 7.499 0 00-1.816 10.45c26.108 37.095 39.908 79.786 39.908 123.458 0 56.535-23.323 111.31-65.674 154.235-31.918 32.351-73.081 56.518-118.814 70.244-9.156-7.448-14.702-22.076-17.242-46.35 9.316 8.669 21.791 13.987 35.491 13.987a52.068 52.068 0 0040.613-19.436c1.26.092 2.518.139 3.766.139 28.758 0 52.154-23.396 52.154-52.154a52.13 52.13 0 00-1.57-12.759c13.721-5.632 25.921-14.997 34.891-26.901 10.885-14.445 16.638-31.664 16.638-49.797 0-18.059-5.844-35.444-16.592-49.738a52.116 52.116 0 0016.5-38.064c0-25.479-18.113-46.705-42.434-51.248-.579-23.15-16.217-42.899-38.24-48.937-7.174-25.679-30.74-43.838-57.825-43.838-13.35 0-25.692 4.383-35.674 11.78 5.504-13.186 13.173-24.236 22.343-31.533 44.329 15.451 83.52 40.857 113.623 74.218a7.499 7.499 0 0010.593.543 7.5 7.5 0 00.544-10.592C385.935 43.205 321.794 10.166 250.356.074a7.447 7.447 0 00-2.098 0c-66.83 9.441-128.1 39.438-172.522 84.463C30.598 130.287 5.74 188.803 5.74 249.307s24.858 119.02 69.996 164.77c44.423 45.025 105.692 75.021 172.522 84.463a7.518 7.518 0 002.098 0c66.83-9.441 128.099-39.438 172.521-84.463 45.138-45.75 69.996-104.266 69.996-164.77 0-46.78-14.745-92.456-42.642-132.092zM319.534 63.69c21.584 0 40.188 15.365 44.238 36.535a7.5 7.5 0 006.085 5.98c17.172 2.978 29.802 17.374 30.702 34.622-11.921 1.2-22.974 6.42-31.56 15.006a7.498 7.498 0 00-.001 10.606 7.476 7.476 0 005.304 2.197 7.474 7.474 0 005.303-2.197c7.019-7.018 16.35-10.882 26.273-10.882.178 0 .35-.038.519-.092.354.067.712.118 1.077.134 19.939.841 35.559 17.143 35.559 37.113a37.118 37.118 0 01-11.58 26.93c-15.343-14.185-35.155-21.97-56.17-21.97-4.143 0-7.5 3.358-7.5 7.5s3.357 7.5 7.5 7.5c18.121 0 35.158 7.057 47.971 19.871.372.372.774.696 1.198.974.26.44.565.858.916 1.243a67.663 67.663 0 0117.758 45.756c0 14.849-4.709 28.947-13.617 40.77-7.365 9.773-17.385 17.447-28.646 22.056a52.062 52.062 0 00-44.849-25.524c-13.931 0-27.027 5.425-36.879 15.276a7.5 7.5 0 0010.607 10.606c7.018-7.018 16.348-10.882 26.271-10.882a37.107 37.107 0 0134.238 22.695l.003.005.006.017a36.93 36.93 0 012.907 14.438c0 18.879-14.157 34.503-32.412 36.841a52.09 52.09 0 003.034-17.544c0-4.142-3.357-7.5-7.5-7.5s-7.5 3.358-7.5 7.5a36.977 36.977 0 01-6.204 20.561c-.01.014-.022.026-.032.041-6.922 10.364-18.48 16.552-30.919 16.552-20.486 0-37.153-16.667-37.153-37.154 0-10.333 4.151-19.936 11.688-27.039a7.501 7.501 0 00.772-10.069c-8.152-10.459-12.461-22.999-12.461-36.261 0-18.289 8.286-35.255 22.734-46.549.067-.052.126-.113.191-.167 10.42-8.076 22.909-12.347 36.137-12.347 4.143 0 7.5-3.358 7.5-7.5s-3.357-7.5-7.5-7.5c-14.464 0-28.224 4.077-40.178 11.837-12.054-12.865-18.884-29.913-18.884-47.655 0-18.473 7.16-35.881 20.162-49.018.026-.026.047-.055.072-.082 13.184-13.282 30.744-20.597 49.462-20.597 4.143 0 7.5-3.358 7.5-7.5s-3.357-7.5-7.5-7.5c-20.503 0-39.851 7.241-55.204 20.486-9.158-8.477-14.493-20.45-14.493-33.065.002-24.843 20.213-45.054 45.055-45.054zM20.739 249.306c0-56.535 23.323-111.31 65.674-154.235 28.917-29.309 65.419-51.906 106.035-66.105 9.151 7.297 16.803 18.334 22.299 31.498-9.981-7.393-22.321-11.775-35.667-11.775-27.086 0-50.652 18.159-57.825 43.838-22.023 6.038-37.661 25.786-38.24 48.937-24.319 4.543-42.434 25.769-42.434 51.248a52.112 52.112 0 0016.5 38.064c-10.749 14.294-16.593 31.679-16.593 49.738 0 1.78.057 3.576.17 5.339.264 4.135 3.861 7.275 7.962 7.007a7.5 7.5 0 007.007-7.962 69.4 69.4 0 01-.139-4.384 67.657 67.657 0 0117.758-45.755c.352-.385.657-.803.917-1.245a7.544 7.544 0 001.195-.972c12.814-12.813 29.852-19.871 47.973-19.871 4.143 0 7.5-3.358 7.5-7.5s-3.357-7.5-7.5-7.5c-21.015 0-40.827 7.786-56.17 21.971a37.119 37.119 0 01-11.58-26.931c0-19.97 15.618-36.271 35.558-37.113a7.317 7.317 0 001.078-.134c.169.054.341.092.519.092 9.924 0 19.254 3.865 26.272 10.882 1.464 1.465 3.384 2.197 5.303 2.197s3.839-.732 5.304-2.197a7.498 7.498 0 00-.001-10.606c-8.586-8.586-19.639-13.807-31.559-15.006.9-17.248 13.53-31.645 30.702-34.622a7.5 7.5 0 006.085-5.981c4.049-21.169 22.653-36.534 44.238-36.534 24.843 0 45.054 20.211 45.054 45.054 0 12.615-5.335 24.588-14.492 33.065-15.354-13.245-34.702-20.486-55.204-20.486-4.143 0-7.5 3.358-7.5 7.5s3.357 7.5 7.5 7.5c18.719 0 36.282 7.318 49.468 20.603.023.024.043.051.066.075 13.002 13.138 20.162 30.546 20.162 49.018 0 17.741-6.83 34.79-18.884 47.656-11.956-7.76-25.715-11.837-40.179-11.837-4.143 0-7.5 3.358-7.5 7.5s3.357 7.5 7.5 7.5c13.229 0 25.719 4.272 36.141 12.35.063.053.121.112.187.164 14.448 11.294 22.734 28.26 22.734 46.549 0 13.263-4.309 25.802-12.461 36.261a7.5 7.5 0 00.771 10.069c7.538 7.103 11.689 16.705 11.689 27.039 0 20.487-16.667 37.154-37.154 37.154-12.438 0-23.996-6.188-30.918-16.552-.011-.017-.025-.031-.037-.047a36.97 36.97 0 01-6.2-20.555c0-4.142-3.357-7.5-7.5-7.5s-7.5 3.358-7.5 7.5a52.11 52.11 0 003.033 17.544c-18.254-2.337-32.412-17.962-32.412-36.841 0-5.01.979-9.867 2.908-14.437l.008-.021.001-.002a37.106 37.106 0 0134.237-22.694c9.925 0 19.255 3.865 26.272 10.882a7.5 7.5 0 0010.607-10.606c-9.852-9.851-22.948-15.276-36.88-15.276a52.058 52.058 0 00-44.849 25.524c-15.431-6.293-28.182-18.159-35.518-33.299a7.5 7.5 0 00-13.499 6.541c8.941 18.454 24.471 32.942 43.279 40.634a52.13 52.13 0 00-1.569 12.753c0 28.758 23.396 52.154 52.154 52.154 1.248 0 2.506-.046 3.767-.139a52.067 52.067 0 0040.612 19.436c13.699 0 26.174-5.317 35.49-13.985-2.541 24.27-8.085 38.9-17.241 46.348-45.733-13.727-86.895-37.893-118.814-70.244-42.346-42.925-65.67-97.699-65.67-154.235zm228.568 234.23a306.968 306.968 0 01-27.594-5.303c12.227-15.78 17.42-43.284 17.42-88.965 0-12.089-4.272-23.845-11.892-33.125 7.799-11.979 11.892-25.768 11.892-40.243 0-20.102-7.977-38.925-22.14-52.8 14.157-15.53 22.14-35.908 22.14-57.081 0-19.694-6.695-38.391-19.006-53.462 12.023-11.278 19.006-27.129 19.006-43.813 0-18.854-3.677-37.605-10.632-54.229-5.116-12.229-11.776-22.654-19.59-30.78a306.154 306.154 0 0140.396-8.659 308.567 308.567 0 0140.409 8.644c-7.82 8.128-14.485 18.557-19.604 30.794-6.955 16.623-10.631 35.375-10.631 54.229 0 16.685 6.982 32.535 19.005 43.813-12.31 15.071-19.005 33.767-19.005 53.462 0 21.174 7.982 41.551 22.139 57.081-14.162 13.875-22.139 32.699-22.139 52.8 0 14.476 4.092 28.263 11.892 40.243-7.619 9.281-11.892 21.037-11.892 33.125 0 45.681 5.193 73.185 17.42 88.965a306.338 306.338 0 01-27.594 5.304z"></path>
  </symbol>
  <symbol xmlns="http://www.w3.org/2000/svg" viewBox="-85 0 512 512.002" id="oat">
    <path d="M244.648 305.39c9.782 15.598 25.305 24.067 41.856 24.067 7.695 0 15.613-1.828 23.297-5.625l29.816-10.52-19.879-24.57c-8.297-13.234-20.761-21.137-34.441-23.289 10.367-.676 20.664-4.59 29.629-12.148l26.437-17.325-25.18-19.132c-5.73-5.551-12.23-9.348-19.023-11.77 5.668-4.328 10.61-9.953 14.38-16.894l18.269-25.774-30.391-8.62c-11.914-4.977-24.063-5.356-34.934-1.927 7.72-6.164 13.704-14.785 16.934-25.441l12.727-28.942-31.528-2.32c-26.512-5.14-50.187 9.086-58.015 34.918l-10.153 23.117a174.082 174.082 0 00-20.52-20.03l24.407-12.958c25.172-9.71 37.644-34.422 30.512-60.45l-4.645-31.26-27.918 14.82c-25.172 9.718-37.644 34.43-30.508 60.456l3.832 25.829c-8.379-6.477-17.414-12.137-26.953-16.98l11.934-21.696c15.75-21.914 12.652-49.418-7.559-67.29L126.008 0l-15.235 27.684c-15.742 21.914-12.644 49.421 7.579 67.304l9.953 11.18c-2.196-.867-4.34-1.809-6.578-2.586-3.872-1.332-7.91.207-10.172 3.395l-16.36-18.809C80.04 65.859 53.16 59.281 29.41 72.094L0 83.676l20.746 23.84c9.98 14.707 25.043 22.57 40.953 22.57 2.664 0 5.356-.305 8.047-.754-12.723 4.934-23.144 15.074-28.555 29.5l-14.55 28.07 31.308 4.328c4.723 1.243 9.414 1.844 13.965 1.844 8.137 0 15.813-1.988 22.64-5.597-2.472 7.414-3.425 15.55-2.175 24.171l.773 31.598 29.52-11.285c2.445-.613 4.695-1.504 6.945-2.395-.73 2.422-1.43 4.868-1.836 7.477l-8.547 30.426 31.536-2.114c.394.02.761-.054 1.168-.042a52.681 52.681 0 00-12.598 16.722l-16.992 26.645 30.804 7.101c3.61 1.305 7.2 2.098 10.782 2.617-13.184 1.11-25.73 7.516-35.016 19.235l-22.453 22.246 28.453 13.73c8.883 5.688 18.46 8.454 27.836 8.454 14.617 0 28.746-6.723 38.96-19.602l1.243-1.234c-28.098 67.875-88.582 117.703-168.316 132.93a9.006 9.006 0 00-7.153 10.53A9.01 9.01 0 0036.316 512c.567 0 1.125-.05 1.692-.16 81.086-15.48 143.691-64.192 176.008-131.113l-1.243 26.476c-4.464 26.613 10.442 49.938 36.465 57.067l29.258 11.921 1.477-31.558c4.46-26.621-10.442-49.945-36.465-57.063l-27.332-11.16c4.922-10.754 8.933-22.023 12.265-33.62l3.805 13.44c4.192 26.649 25.684 44.133 52.652 42.579l31.543 2.05-8.601-30.406c-4.192-26.668-25.89-44.144-52.656-42.578l-22.649-1.465c2.106-9.883 3.68-19.988 4.598-30.332zM203.16 59.935l6.965-3.618.98 6.625.243 1.141c4.941 17.297-3.067 33.164-19.914 39.465l-6.965 3.617-.985-6.617-.242-1.14c-4.941-17.298 3.07-33.165 19.918-39.473zM125.63 37.84l3.863-6.856 4.453 5.012.836.82c13.598 11.778 15.578 29.434 4.942 43.926l-3.864 6.856-4.445-5.004-.836-.82c-13.598-11.778-15.586-29.434-4.95-43.934zm104.969 371.933l.441-7.847 6.191 2.523 1.118.367c17.394 4.575 26.96 19.547 23.8 37.258l-.441 7.848-6.2-2.52-1.097-.37c-17.402-4.579-26.973-19.548-23.812-37.259zm24.558-63.855l.586-.04c17.863-1.257 31.758 10 34.367 27.794l2.063 7.586-7.266-.469-.582.035c-17.836 1.332-31.761-9.988-34.37-27.789l-2.06-7.586zm-17.07-69.8c.035-2.583.242-5.114.207-7.723-.137-8.81-.953-17.485-2.32-26.008l11.277 8.57c7.918 7.668 17.215 12.266 26.852 13.95a52.922 52.922 0 00-19.52 5.39zm-12.574-71.716l22.14 6.274c1.375.574 2.762 1.05 4.149 1.512-1.09.789-2.242 1.43-3.293 2.32l-16.192 10.617a178.035 178.035 0 00-6.804-20.723zm79.207 94.258l4.875 6.164-6.309 2.223-1.07.469c-16.047 8.117-33.145 3.293-42.54-12.043l-4.886-6.16 6.309-2.223 1.07-.469c16.055-8.129 33.144-3.293 42.55 12.04zm5.453-63.777l-5.59 3.672-.934.703c-13.652 11.754-31.39 11.125-44.18-1.531l-6.198-4.813 5.585-3.664.938-.703c13.645-11.75 31.398-11.121 44.176 1.523zm-17.324-64.336l7.539 2.215-3.867 5.453-.614.988c-8.422 15.902-25.18 21.797-41.703 14.688l-7.523-2.207 3.87-5.454.614-.988c8.402-15.91 25.16-21.832 41.684-14.695zm-71.555-33.766l.398-1.097c5.04-17.262 20.22-26.457 37.875-22.786l7.829.649-2.688 6.129-.406 1.097c-5.04 17.27-20.293 26.43-37.867 22.786l-7.84-.649zm2.105 24.532a56.255 56.255 0 0010.7 1.054c5.273 0 10.332-.828 15.093-2.332a52.653 52.653 0 00-13.652 16.246L221.762 195.7c-5.934-12.941-13.32-25.07-22.04-36.133zm-23.074 31.714l-19.976 1.34c-7.723-.387-14.903.918-21.457 3.387 1.945-6.84 2.62-14.238 1.496-22.031l-.766-31.086c16.656 13.12 30.461 29.636 40.703 48.39zM35.402 97.06l-5.093-5.985 6.226-2.445 1.055-.504c15.73-8.723 32.992-4.484 42.937 10.488l5.09 5.985-6.226 2.449-1.051.504c-15.73 8.71-32.992 4.48-42.938-10.492zm51.125 26.53l23.688-9.343c.719 2.836 2.652 5.309 5.625 6.344 15.883 5.508 30.433 13.61 43.348 23.695l-29.102 11.121c-4.356 1.09-8.29 2.782-12.016 4.727 0 0 .012-.008.012-.016l14.55-28.05-31.308-4.34c-7.351-1.934-14.535-2.16-21.347-1.141a55.999 55.999 0 006.55-2.996zm-24.414 50.134l-7.777-1.16 3.086-5.942.476-1.07c6.13-16.91 21.915-25.078 39.258-20.309l7.774 1.16-3.086 5.93-.477 1.082c-6.137 16.899-21.93 25.05-39.254 20.309zm55.77 40.882l-7.371 2.739-.164-6.688-.106-1.168c-2.773-17.773 7.125-32.523 24.613-36.71l7.368-2.735.164 6.687.11 1.168c2.776 17.774-7.122 32.524-24.614 36.707zm32.828 32.715l-7.262.485 1.809-6.434.23-1.152c2.457-16.973 15.11-27.934 31.844-27.934.816 0 1.645.028 2.473.082l.586.035 7.261-.484-1.808 6.445-.235 1.153c-2.574 17.797-16.171 29.039-34.312 27.851zm52.621-24.64l4.184-14.895c6.922 16.442 11.132 34.242 12.34 52.727l-17.864-4.121c-5.113-1.844-10.207-2.692-15.219-2.996 8.594-7.461 14.586-17.98 16.559-30.715zm-52.117 74.191l3.59-5.644.566-1.024c7.613-16.3 24.055-23.023 40.902-16.742l7.653 1.848-3.594 5.64-.566 1.016c-7.614 16.308-24.082 23.058-40.91 16.742zm37.41 53.195l-.773.883c-11.043 14.207-28.555 17.14-43.602 7.278l-7.047-3.48 4.762-4.708.773-.883c11.032-14.21 28.543-17.144 43.602-7.281l7.047 3.484zm7.074-23.578c-6.535-4.187-13.453-6.605-20.383-7.695 17.106-1.371 32.278-11.52 40.504-28.656l4.086-6.407c-.793 17.575-3.43 34.52-7.8 50.676zm0 0"></path>
  </symbol>
  <symbol xmlns="http://www.w3.org/2000/svg" viewBox="0 0 16 22" id="play">
    <path d="M0 2.4v17.2c0 1.9 2 3.1 3.5 2L15 13c1.3-.9 1.3-3 0-3.9L3.5.4C2-.7 0 .5 0 2.4z" fill="#fff"></path>
  </symbol>
  <symbol xmlns="http://www.w3.org/2000/svg" viewBox="0 0 511 511" id="powder">
    <circle cx="135.5" cy="175.5" r="7.5"></circle>
    <circle cx="183.5" cy="175.5" r="7.5"></circle>
    <circle cx="159.5" cy="207" r="7.5"></circle>
    <circle cx="207.5" cy="207" r="7.5"></circle>
    <circle cx="63" cy="207" r="7.5"></circle>
    <circle cx="111.5" cy="207" r="7.5"></circle>
    <circle cx="159.5" cy="144" r="7.5"></circle>
    <circle cx="111.5" cy="144" r="7.5"></circle>
    <circle cx="88" cy="175.5" r="7.5"></circle>
    <path d="M487.5 224h-71.392c-4.143 0-7.5 3.358-7.5 7.5s3.357 7.5 7.5 7.5H487.5c4.687 0 8.5 3.813 8.5 8.5v2.446a8.474 8.474 0 01-7.103 8.385l-226.631 37.771a7.5 7.5 0 00-6.267 7.398v40c0 31.154-25.346 56.5-56.5 56.5h-128C40.346 400 15 374.654 15 343.5V239h364.326c4.143 0 7.5-3.358 7.5-7.5s-3.357-7.5-7.5-7.5H268.581c-4.269-10.311-15.456-35.376-32.9-60.749C205.433 119.255 170.791 96 135.5 96s-69.933 23.255-100.181 67.251C13.056 195.635.98 227.525.478 228.867c-.015.04-.023.081-.037.121a7.54 7.54 0 00-.19.62c-.019.073-.04.146-.056.219-.05.219-.088.441-.119.666-.008.059-.021.118-.027.177a7.34 7.34 0 00-.049.83v112C0 382.925 32.075 415 71.5 415h128c39.425 0 71.5-32.075 71.5-71.5v-33.646l220.364-36.727A23.428 23.428 0 00511 249.946V247.5c0-12.958-10.542-23.5-23.5-23.5zm-352-113c61.131 0 103.635 83.529 116.725 113H18.768C31.837 194.529 74.29 111 135.5 111z"></path>
  </symbol>
  <symbol stroke="#b0f7ff" fill="none" xmlns="http://www.w3.org/2000/svg" viewBox="0 0 16 15.2" id="sheet">
    <path d="M2.4 14.9S5.3 9 12.3 9.6m-8 2.7s-.8-5.4 5.1-5.5c4.5.3 6.1 2.7 6.1 2.7s-2 4.3-7 4.8c-1.6.1-3.6-1-3.6-1m-2.1-1.2s-.1-2.2-.4-3.2-.4-3.6.3-5.1"></path>
    <path d="M2.3 9.4s-2-1-1.8-3.8S3 .6 3 .6s4.1 3.7.6 7.9"></path>
  </symbol>
  <symbol fill="none" xmlns="http://www.w3.org/2000/svg" viewBox="0 0 39 37" id="sheets2">
    <path d="M5.687 22.47c0 .487.243.973.243 1.458 0 1.944.242 5.102.242 5.102h1.215s0-5.102-.729-7.774c-.728-2.915-.971-8.259.729-12.146l-1.215-.485s-1.457 2.915-1.457 7.53c0 2.915.243 4.13.486 5.344-.972-.729-3.644-3.158-3.401-8.259.486-5.83 5.587-11.174 5.587-11.174s8.988 8.502.972 17.976l.971.728s3.644-4.13 3.644-8.745c0-4.615-1.943-8.502-5.587-11.66 0 0-6.316 6.073-6.802 13.36-.243 6.803 4.859 9.232 4.859 9.232l.243-.486z" fill="#C6F7FF"></path>
    <path d="M18.318 16.155c-8.988 2.672-8.502 11.417-8.259 13.36-3.158 3.158-4.615 6.074-4.615 6.074l.971.485c9.231-15.303 23.563-12.388 23.563-12.388V22.47c-8.745-.972-14.818 2.43-18.947 5.83-.243-3.158 1.214-10.688 10.445-11.417 10.689-.243 15.79 6.073 15.79 6.073-5.587 8.988-11.903 10.202-15.79 10.688-4.13.729-9.23-2.186-9.23-2.186l-.486.972s4.372 2.915 9.96 2.429c12.145-1.458 16.76-12.146 16.76-12.146-1.214-2.43-10.202-8.988-20.162-6.559z" fill="#C6F7FF"></path>
  </symbol>
  <symbol xmlns="http://www.w3.org/2000/svg" viewBox="0 0 37.453 31.21" id="twitter">
    <path fill="#FFF" d="M36.421.577a15.112 15.112 0 01-4.884 1.909A7.575 7.575 0 0025.93 0c-4.24 0-7.682 3.528-7.682 7.879 0 .618.066 1.217.198 1.794-6.385-.329-12.047-3.462-15.839-8.235a8.02 8.02 0 00-1.04 3.966c0 2.731 1.356 5.144 3.418 6.557a7.547 7.547 0 01-3.481-.981v.096c0 3.819 2.648 7.004 6.167 7.725a7.292 7.292 0 01-2.025.277c-.495 0-.979-.047-1.447-.139.979 3.129 3.815 5.408 7.179 5.469a15.172 15.172 0 01-9.544 3.375c-.619 0-1.232-.037-1.833-.109a21.388 21.388 0 0011.778 3.537c14.136 0 21.863-12.004 21.863-22.417 0-.343-.006-.685-.021-1.021a15.749 15.749 0 003.832-4.078 15.04 15.04 0 01-4.412 1.24 7.861 7.861 0 003.38-4.358"></path>
  </symbol>
  <symbol stroke="#b0f7ff" fill="none" xmlns="http://www.w3.org/2000/svg" viewBox="0 0 18.2 14.8" id="van">
    <path d="M1.9 12h8.3c.4 0 .8-.3.8-.8V3c0-.4-.3-.8-.8-.8H1.9c-.5 0-.8.4-.8.8v8.3c0 .4.3.7.8.7z"></path>
    <path d="M11.2 3.8h3.6s.4 0 .9.5c.2.2.4.5.7.9.5.7 1.1 1.4 1.1 1.4s.4.4.4 1.1v3.5s.1.8-1.1.8h-6.3"></path>
    <circle cx="4.7" cy="12.4" r="1.9"></circle>
    <circle cx="14.1" cy="12.4" r="1.9"></circle>
    <circle cx="4" cy="4.2" r="3.7"></circle>
    <path d="M2.7 5.5l1.4-1.1V1.9"></path>
    <circle cx="4" cy="4.4" r=".5"></circle>
    <path d="M17.7 8.1h-4s-.6-.1-.6-.8V5.8s0-.5.7-.5h2.5"></path>
  </symbol>
  <symbol xmlns="http://www.w3.org/2000/svg" xmlns:xlink="http://www.w3.org/1999/xlink" viewBox="0 0 126 72" id="vk">
    <defs>
      <path id="a" d="M0 0h126v72H0z"></path>
    </defs>
    <clipPath id="b">
      <use xlink:href="#a" overflow="visible"></use>
    </clipPath>
    <path clip-path="url(#b)" fill="#FFF" d="M124.523 64.503a8.35 8.35 0 00-.426-.816c-2.172-3.91-6.324-8.711-12.449-14.401l-.129-.134-.066-.063-.066-.066h-.063c-2.781-2.651-4.543-4.434-5.281-5.344-1.348-1.738-1.652-3.5-.914-5.281.523-1.348 2.477-4.19 5.867-8.538a447.262 447.262 0 004.234-5.539c7.52-9.996 10.777-16.383 9.777-19.164l-.387-.649c-.262-.39-.934-.75-2.02-1.074-1.086-.327-2.477-.383-4.172-.163l-18.772.127c-.301-.105-.738-.099-1.301.034l-.852.195-.323.166-.258.195c-.219.129-.457.354-.719.683a4.443 4.443 0 00-.648 1.142c-2.047 5.258-4.367 10.145-6.977 14.663-1.609 2.695-3.086 5.031-4.434 7.009-1.348 1.976-2.477 3.434-3.387 4.366-.914.935-1.738 1.685-2.477 2.246-.742.567-1.305.806-1.695.72-.391-.091-.762-.177-1.109-.263a4.288 4.288 0 01-1.465-1.597c-.371-.672-.621-1.52-.75-2.543a28.65 28.65 0 01-.23-2.637c-.02-.738-.008-1.785.035-3.129.043-1.349.066-2.263.066-2.738 0-1.653.031-3.446.094-5.379.066-1.935.121-3.465.164-4.594.043-1.13.066-2.324.066-3.587 0-1.258-.078-2.245-.23-2.965a9.987 9.987 0 00-.684-2.086c-.305-.672-.75-1.194-1.336-1.562-.586-.371-1.313-.664-2.18-.883-2.305-.521-5.238-.802-8.8-.849-8.082-.086-13.274.438-15.579 1.567-.914.476-1.738 1.129-2.476 1.953-.781.957-.891 1.479-.328 1.565 2.609.392 4.453 1.325 5.543 2.802l.39.784c.305.563.61 1.563.911 2.996.304 1.435.5 3.021.585 4.758.219 3.173.219 5.888 0 8.149-.214 2.257-.421 4.019-.617 5.277-.195 1.262-.488 2.28-.879 3.065-.39.782-.652 1.258-.785 1.435-.129.172-.238.28-.324.323a4.815 4.815 0 01-1.762.328c-.605 0-1.344-.304-2.215-.914-.867-.608-1.769-1.444-2.703-2.512-.933-1.062-1.988-2.55-3.164-4.464-1.172-1.911-2.386-4.168-3.648-6.778l-1.043-1.89c-.653-1.215-1.543-2.985-2.672-5.313a100.975 100.975 0 01-2.996-6.745c-.348-.91-.871-1.605-1.567-2.087l-.324-.194c-.219-.172-.566-.356-1.043-.556a7.006 7.006 0 00-1.5-.422l-17.858.133c-1.824 0-3.063.414-3.715 1.238l-.262.392C.066 5.113 0 5.46 0 5.938c0 .48.129 1.065.391 1.762a215.077 215.077 0 008.507 17.725c3.063 5.696 5.723 10.278 7.981 13.754a161.747 161.747 0 006.91 9.84c2.348 3.086 3.902 5.063 4.66 5.935a43.02 43.02 0 001.793 1.953l1.629 1.565c1.043 1.043 2.574 2.293 4.598 3.746 2.02 1.457 4.258 2.891 6.711 4.305 2.457 1.41 5.312 2.563 8.574 3.453 3.258.892 6.43 1.25 9.516 1.074h7.496c1.52-.129 2.672-.609 3.453-1.433l.258-.324c.176-.262.34-.665.488-1.208.152-.542.23-1.14.23-1.792-.043-1.868.098-3.551.422-5.051.324-1.496.695-2.625 1.109-3.388.414-.762.879-1.401 1.402-1.922.52-.522.891-.836 1.109-.944.215-.11.387-.185.52-.231 1.043-.347 2.27-.007 3.684 1.012 1.41 1.024 2.734 2.281 3.977 3.781 1.238 1.5 2.727 3.184 4.461 5.051 1.742 1.867 3.262 3.258 4.563 4.172l1.305.781c.871.524 2 1 3.391 1.435 1.391.437 2.605.547 3.648.327l16.688-.262c1.648 0 2.934-.272 3.844-.815.914-.544 1.453-1.142 1.629-1.789.176-.653.184-1.392.035-2.22-.158-.824-.31-1.402-.459-1.727zm0 0"></path>
  </symbol>
  <symbol xmlns="http://www.w3.org/2000/svg" viewBox="0 0 18 22" id="volume">
    <path d="M15.9.3L7.4 6.6C6.7 6.2 5.9 6 5 6c-2.8 0-5 2.2-5 5s2.2 5 5 5c.9 0 1.7-.2 2.4-.6l8.5 6.4c.9.7 2.1 0 2.1-1.1V1.4C18 .3 16.8-.4 15.9.3z" fill="#626262"></path>
  </symbol>
  <symbol xmlns="http://www.w3.org/2000/svg" viewBox="0 0 512.001 512.001" id="beans">
    <path d="M242.488 120.593c-3.526-4.394-9.945-5.097-14.337-1.571-5.263 4.224-11.622 6.457-18.39 6.457-6.768 0-13.127-2.232-18.39-6.457-4.392-3.527-10.811-2.823-14.337 1.571-3.526 4.392-2.823 10.811 1.571 14.337 8.795 7.058 19.859 10.946 31.156 10.946 11.297 0 22.361-3.888 31.156-10.946 4.394-3.526 5.097-9.944 1.571-14.337z"></path>
    <path d="M504.631 264.492c-8.163-22.526-22.391-41.812-41.147-55.774-13.269-9.878-28.419-16.679-44.683-20.203 3.462-32.092-6.464-65.395-27.393-90.697-22.63-27.358-55.115-42.424-91.47-42.424h-5.942c-25.451 0-50.164 9.038-71.469 26.135-3.653 2.932-8.068 4.482-12.766 4.482s-9.113-1.55-12.766-4.482c-21.304-17.099-46.018-26.135-71.469-26.135h-5.942c-26.268 0-50.843 7.958-71.069 23.014C29.76 92.37 15.532 111.657 7.369 134.182c-8.129 22.435-9.564 46.232-4.149 68.822 5.843 24.371 19.547 46.11 39.632 62.866a261.144 261.144 0 0049.861 32.725c-.727 11.66.258 23.342 2.985 34.719 5.843 24.371 19.547 46.11 39.632 62.866 46.708 38.966 105.984 60.427 166.909 60.427s120.202-21.459 166.909-60.427c20.085-16.756 33.789-38.495 39.631-62.866 5.416-22.588 3.982-46.387-4.148-68.822zM95.972 277.276a240.883 240.883 0 01-40.053-27.067c-39.007-32.542-40.749-77.682-29.372-109.077 11.446-31.588 41.898-65.34 93.039-65.34h5.942c20.758 0 41.057 7.485 58.702 21.646 7.208 5.786 16.276 8.971 25.533 8.971s18.325-3.186 25.533-8.971c17.644-14.162 37.944-21.646 58.702-21.646h5.942c30.165 0 57.068 12.44 75.754 35.029 17.351 20.974 25.637 48.509 22.887 75.049a128.576 128.576 0 00-6.163-.165h-5.942c-25.451 0-50.164 9.038-71.469 26.135-3.653 2.932-8.067 4.481-12.766 4.481s-9.113-1.55-12.766-4.481c-21.305-17.099-46.018-26.135-71.469-26.135h-5.942c-26.268 0-50.843 7.958-71.069 23.014-18.756 13.962-32.985 33.249-41.147 55.774a124.227 124.227 0 00-3.876 12.783zm360.11 103.242c-43.047 35.914-97.683 55.692-153.843 55.692s-110.796-19.779-153.843-55.692c-39.007-32.541-40.749-77.682-29.373-109.077 11.447-31.588 41.898-65.34 93.039-65.34h5.942c20.758 0 41.057 7.485 58.702 21.646 7.208 5.785 16.276 8.971 25.533 8.971s18.324-3.186 25.533-8.971c17.645-14.161 37.944-21.646 58.702-21.646h5.942c51.141 0 81.592 33.753 93.039 65.34 11.376 31.395 9.633 76.536-29.373 109.077z"></path>
    <path d="M333.342 249.52c-3.526-4.393-9.944-5.096-14.337-1.571-5.263 4.224-11.622 6.457-18.39 6.457-6.768 0-13.126-2.232-18.39-6.457-4.392-3.526-10.811-2.823-14.337 1.571-3.526 4.392-2.823 10.811 1.571 14.337 8.795 7.058 19.86 10.946 31.156 10.946s22.361-3.887 31.156-10.946c4.393-3.525 5.097-9.944 1.571-14.337zm78.732 135.412c-2.57-5.011-8.718-6.991-13.729-4.419-29.909 15.341-62.244 23.12-96.106 23.12-5.633 0-10.198 4.566-10.198 10.198 0 5.633 4.566 10.198 10.198 10.198 37.131 0 72.598-8.535 105.415-25.369 5.011-2.57 6.99-8.717 4.42-13.728zm39.534-28.871c-3.608-4.327-10.038-4.909-14.363-1.3a214.734 214.734 0 01-7.237 5.774c-4.479 3.417-5.34 9.816-1.924 14.294a10.18 10.18 0 008.116 4.014c2.157 0 4.33-.681 6.177-2.09a231.852 231.852 0 007.932-6.329c4.325-3.608 4.907-10.039 1.299-14.363z"></path>
  </symbol>
  <symbol xmlns="http://www.w3.org/2000/svg" viewBox="0 0 442.326 442.326" id="chocolate-bar">
    <path d="M430.024 68.87l-56.568-56.568C365.523 4.369 354.976 0 343.757 0c-11.218 0-21.766 4.369-29.699 12.302a41.962 41.962 0 00-12.3 30.598 41.91 41.91 0 00-30.597 12.301 41.949 41.949 0 00-12.3 30.598c-11.206-.274-22.305 4.008-30.598 12.3a41.962 41.962 0 00-12.3 30.597c-11.214-.228-22.305 4.008-30.597 12.301h-.001L45.358 281.003l-.023.023-42.279 42.278a9.955 9.955 0 00-2.729 4.671 9.952 9.952 0 00.556 6.629l.002.003c.214.475.463.93.746 1.362a9.968 9.968 0 005.583 4.135l.019.005c.01.005.016.006.023.007l34.258 9.789 9.789 34.258a10 10 0 006.868 6.868l34.254 9.785 9.787 34.255a.328.328 0 00.006.022l.003.01.003.013.004.013.001.005a9.963 9.963 0 005.436 6.284l.012.005a9.978 9.978 0 004.144.904c.909 0 1.834-.125 2.752-.388a9.95 9.95 0 004.451-2.671l42.276-42.276a.25.25 0 00.023-.023l60.658-60.658a10 10 0 0014.142 0l72.278-72.278c3.905-3.905 3.905-10.237 0-14.143l-.85-.85a41.99 41.99 0 006.08-22.677 42 42 0 0030.597-12.3 41.949 41.949 0 0012.3-30.598c11.2.261 22.305-4.008 30.598-12.3a41.95 41.95 0 0012.3-30.598c11.205.209 22.305-4.009 30.597-12.301 7.933-7.933 12.302-18.479 12.302-29.698.001-11.217-4.368-21.764-12.301-29.698zM116.773 413.234l-6.644-23.255a10 10 0 00-6.868-6.868l-34.254-9.785-9.789-34.258a10 10 0 00-6.868-6.868l-23.259-6.646 23.338-23.338 87.681 87.682-23.337 23.336zm118.18-104.038L211.46 200.459c-1.167-5.398-6.488-8.825-11.886-7.662-5.398 1.166-8.829 6.488-7.663 11.886l23.703 109.71-61.362 61.362-87.681-87.681 125.865-125.865 94.752 94.752-52.235 52.235zm180.93-195.071a21.985 21.985 0 01-25.349 4.145 10 10 0 00-13.406 13.406 21.98 21.98 0 01-4.144 25.348 21.978 21.978 0 01-25.348 4.144 9.999 9.999 0 00-13.406 13.406 21.98 21.98 0 01-4.144 25.348 21.98 21.98 0 01-25.348 4.144 10 10 0 00-13.406 13.406 21.972 21.972 0 011.231 16.581l-84.289-84.289a21.97 21.97 0 0116.58 1.231 9.999 9.999 0 0013.406-13.406 21.978 21.978 0 014.144-25.348 21.974 21.974 0 0125.348-4.143 9.999 9.999 0 0013.406-13.406 21.981 21.981 0 014.144-25.349 21.981 21.981 0 0125.348-4.144 10 10 0 0013.406-13.406 21.976 21.976 0 014.144-25.348 21.857 21.857 0 0115.556-6.444 21.857 21.857 0 0115.556 6.444l56.569 56.568a21.857 21.857 0 016.444 15.557 21.854 21.854 0 01-6.442 15.555z"></path>
  </symbol>
</svg>