<svg width="0" height="0" class="hidden">
  <symbol stroke="#b0f7ff" fill="none" xmlns="http://www.w3.org/2000/svg" viewBox="0 0 15.2 15.2" id="cm">
    <path d="M10 3.8S10.3.4 6.2.4H3.7S1 .4.4 2.6v6.1c0 .4.6 2.4 3.5 2.4"></path>
    <path d="M14.7 6.8v6.3c0 1.7-1.6 1.6-1.6 1.6H6.7c-1.4 0-1.5-.8-1.5-.8v-3.4c0-1.7 1.2-1.6 1.2-1.6h6.2c1.5 0 2.1-.7 2.1-2.1s-1.4-1.7-1.4-1.7H4C2.1 5.1.8 3.7.8 3.7l-.4-.5m8.5 7.6V9m3.6 1.8V8.9"></path>
    <ellipse cx="5.2" cy="2.9" rx="1" ry=".4"></ellipse>
  </symbol>
  <symbol xmlns="http://www.w3.org/2000/svg" viewBox="0 0 36.711 36.711" id="fb">
    <path d="M36.711 34.686a2.025 2.025 0 01-2.026 2.025H25.33V22.495h4.771l.715-5.541H25.33v-3.537c0-1.604.445-2.696 2.746-2.696l2.934-.001V5.764c-.508-.067-2.249-.219-4.275-.219-4.23 0-7.127 2.582-7.127 7.323v4.086h-4.784v5.541h4.784v14.216H2.026A2.025 2.025 0 010 34.686V2.026C0 .907.907 0 2.026 0h32.659c1.119 0 2.026.907 2.026 2.026v32.66z"></path>
  </symbol>
  <symbol xmlns="http://www.w3.org/2000/svg" viewBox="0 -4 511.997 511" id="grape">
    <path d="M350.8 271.742c46.083-31.781 35.243-110.89-19.94-126.097-3.919-1.083-19.442-.493-21.325-2.282-3.144-2.984-4.996-17.289-7.418-21.734-6.906-12.688-17.902-22.899-30.89-29.16-27.036-13.031-59.72-7.41-79.856 15.144-19.398-26.258-53.281-34.222-82.586-20.097-12.98 6.257-24.207 16.328-31.5 28.785a66.83 66.83 0 00-7.87 20.633c-1.75 8.738.476 16.734-.204 25.242-.473 5.879.883 4.691-5.543 7.156a66.306 66.306 0 00-10.508 5.156c-7.402 4.477-13.82 10.38-19 17.301-9.914 13.246-15.035 29.926-14.492 46.45.25 7.542 1.672 15.073 4.281 22.156a69.045 69.045 0 005.75 11.918c.965 1.59 3.309 4.042 3.817 5.613 1.472 4.566 1.547.949-.692 5.304-4.207 8.188-11.879 14.122-15.617 23.192a73.353 73.353 0 00-5.52 28.855c.114 9.282 1.965 18.543 5.583 27.102 1.722 4.078 4.511 7.629 6.293 11.598 1.5 3.347 2.722 2.964 1.921 5.843-.363 1.313-5.988 5.45-6.812 6.332C6.39 399.332-.128 417.242 0 435.187c.281 38.739 32.188 71.262 71.46 69.215 17.638-.918 34.716-8.703 46.747-21.672 1.781-1.918 6.723-11.242 8.797-11.875 1.691-.52 10.437 4.008 12.207 4.473 9.258 2.414 18.926 2.7 28.336 1.031 17.488-3.105 33.535-13.132 43.969-27.507 2.863-3.946 4.488-8.778 7.27-12.641.655-.906 1.175-4.738 2.066-5.203.437-.23 6.539 1.785 7.773 2.027 10.25 2.012 20.977 1.504 31.023-1.316 10.657-2.989 20.532-8.574 28.61-16.125 2.219-2.078 8.922-12.953 11.36-13.785 2.75-.942 11.859 3.152 15.066 3.507 21.214 2.344 42.8-6.078 57.367-21.558 31.804-33.801 20.949-92.274-21.25-112.016 2.71-1.87 5.422-3.738 8.133-5.61-2.711 1.872-5.422 3.74-8.133 5.61zm-56.327-71.715c2.468-2.886 4.968-6.304 6.668-9.714a56.47 56.47 0 001.64-3.075c2.426-4.863 4.36-9.922 5.625-15.218 1.746-7.286.176-8.356 7.45-8.977 6.874-.586 15.187 2.766 20.976 6.242 11.523 6.914 19.05 18.969 22.02 31.906 2.882 12.582 1.64 26.414-4.364 37.934-3.226 6.188-7.804 11.613-13.46 15.719-1.876 1.363-18.622 9.394-18.622 7.629.02-.328.032-.66.032-.996.058-2.352.011-4.793-.208-7.141-.02-.356-.05-.711-.09-1.066 0-.047-.007-.098-.007-.157-2.149-20.437-12.485-39.195-29.418-51l1.758-2.086c.297-.347-.559.707 0 0 2.527-2.957-.559.707 0 0zm-1.426 29.68c.156.195.297.383.422.582 2.476 3.473 4.453 7.29 5.969 11.27.175.453.343.906.492 1.367.078.187.136.375.195.562.11.305.207.61.297.926 1.101 3.195 1.59 6.586 2.066 9.918.047.473.098.945.125 1.422.032.226.04.453.051.68.04.453.059.906.078 1.359.012.105.012.227.012.332.203 4.273.086 9.457-1.277 13.555-.09.386-.149.761-.18 1.144-7.16 17.227-18.168 32.535-37.43 36.625-.012 0-.031.012-.039.012-12.039 2.57-26.516.398-36.527-7.121a35.358 35.358 0 01-2.29-1.625c-.011-.012-.03-.024-.038-.031-20.551-15.622-24.305-43.797-12.09-65.836 12.66-22.836 35.668-29.559 59.527-21.582a42.14 42.14 0 011.543.691c.012 0 .024 0 .031.008.5.238 1.004.472 1.496.73.086.04.176.09.266.13a45.138 45.138 0 014.149 2.41 49.584 49.584 0 013.57 2.535 42.216 42.216 0 013.152 2.687c.188.156.367.324.543.504 1.297 1.125 5.45 6.137 5.887 6.746.156.195-.57-.797 0 0zM188.05 240.563a66.479 66.479 0 00-1.547 6.746c-14.211.386-26.781-5.95-36.606-15.82-6.125-6.68-10.351-14.934-12.222-23.868-9.356-24.418 13.308-54.101 36.094-59.824-2.575 24.976 8.878 50.527 29.41 65.035-7.082 7.988-12.325 17.598-15.18 27.887.398-1.426.813-2.848 1.203-4.278-.383 1.375-.77 2.75-1.152 4.121-.633 2.215 2.887-10.304 0 0zm14.59 65.98h-.012v.012c-11.336 7.996-21.535 20.425-25.395 33.976h-.011a59.829 59.829 0 01-4.79-1.379c-4.523-1.511-9.413-1.847-14.156-1.933a81.46 81.46 0 00-5.695.082 25.903 25.903 0 01-4.422.383 18.06 18.06 0 00-3.55.53c-.079.013-.169.02-.247.04-.504.2-1.02.297-1.543.297-16.37-8.946-27.152-27.352-26.222-46.063v-.129c.023-.515.047-1.03.066-1.546 0-.06 0-.118.012-.168.02-.383.05-.758.078-1.133 0-.047.012-.098.012-.149.125-1.414.246-3.27.609-4.726a46.744 46.744 0 011.328-5.606c.02-.058.04-.129.059-.187.02-.117.058-.227.097-.344.973-3.453 2.461-6.41 4.04-9.574a51.202 51.202 0 012.558-4.168c2.617-4.008 5.93-7.602 9.676-10.582a12.771 12.771 0 013.578-2.66c.41-.286.824-.559 1.246-.817.297-.195.594-.375.887-.55l.011.007c12.407 10.887 28.149 16.867 44.57 16.867h.294c.316 3.813.746 9.344 2.476 12.817.203.722.422 1.441.66 2.156.02.066.051.129.07.195a83.4 83.4 0 00.747 2.168c2.95 8.125 7.344 15.61 12.969 22.184zm-3.461-176.004c.039-.09.086-.18.129-.266.007-.02.027-.05.039-.07 23.855-43.656 90.925-24.195 91.457 24.293 0 .106 0 .227.011.336v.145c0 11.613-3.996 22.808-11.05 31.957-.059.07-.11.136-.168.207-1.641 2.078-3.496 4.011-5.446 5.793-13.254-4.348-31.418-5.102-44.257 1.34-1.856.69-9.208 5.398-10.856 5.308-2.586-.14-6.59-4.363-8.371-5.895a50.42 50.42 0 01-13.406-18.21c-.032-.079-.059-.157-.098-.235-6.047-14.27-4.586-32.512 1.695-44.117-.57 1.059-.464.86.32-.586.04-.09-1.523 2.816 0 0zm-62.465-31.05c17.972 0 34.375 10.187 42.898 26.28a6.78 6.78 0 00-.218.485c-.106.226-.208.453-.305.687-34.934 3.262-61.77 34.563-62.2 69.204-4.027-1.7-7.953-4.211-11.206-7.133a21.71 21.71 0 01-1.063-.926c-36.133-27.125-10.605-88.598 32.094-88.598zm-59.043 86.163c.058.11.129.23.195.328 1.203 2.09 3.016 5.418 4.828 7.23.266.364.551.727.836 1.083.176.238.364.465.563.691.261.336.527.66.812.996 0 .008 0 .008.012.008 5.32 6.43 12.371 12.551 19.957 16.188 3.96 2.133 12.105 3.148 15.215 5.898 3.16 2.801 5.297 12.965 7.836 16.965-3.453 2.125-6.684 4.86-9.551 7.73-.156.141-.313.29-.46.446-.274.254-.54.52-.798.797-4.633 4.64-8.441 9.968-11.601 15.703-.047.078-.086.168-.125.246-.98.84-1.47 1.8-1.465 2.875a31.494 31.494 0 01-.719 1.547c-.012.02-.02.031-.02.05a62.739 62.739 0 00-1.93 4.727c-.464 1.281-1.054 2.723-1.347 4.078-.12.395-.234.793-.344 1.192-.117.383-.222.77-.312 1.164-.04.125-.07.254-.098.383-.09.304-.168.609-.238.914-.008.058-.027.109-.04.168-.538 2.226-.726 4.543-1.276 6.757-.008.051-.008.09-.02.141-.012.035-.012.078-.012.117-.02.078-.02.156-.027.235l-.031.238h-.008c-.535.078-1.067.18-1.594.305-3.851.64-7.926.949-11.808.543-.04 0-.09-.012-.13-.012-.472-.04-.945-.078-1.406-.13a1.38 1.38 0 00-.273-.026 52.051 52.051 0 01-11.82-2.957 48.279 48.279 0 01-5.239-2.434 27.759 27.759 0 00-2.683-1.547c-.5-.309-.992-.629-1.477-.965-.375-.254-.758-.511-1.133-.777a.17.17 0 00-.058-.04 92.006 92.006 0 00-2.93-2.284c-30.484-25.618-18.883-79.899 20.719-88.57-.164-.301-8.637 1.874-9.805 2.171 3.242-.82 6.543-1.457 9.805-2.172.058.11-22.184 4.86 0 0zM50.445 293.914c3.45 2.293 10.075 7.25 14.317 7.25 6.058 2.16 12.68 3.754 19.133 3.961h.011c3.223.21 6.989.465 10.188-.176 2.422-1.508 3.629-1.648 3.625-.426 1.586 10.325 5.508 22.82 12.527 30.856 0 .008.012.02.012.02 3.082 4.296 6.578 8.265 10.605 11.703.04.027.07.066.121.097-10.066 6.164-29.027 22.676-29.027 35.906-2.344.586-4.777 1.079-7.195 1.282-.2.031-.395.047-.59.058-48.23 4.403-70.79-61.472-33.727-90.53.082.054-4.5 4.78-5.183 4.327-.117-.078 6.648-5.476 5.183-4.328 1.621 1.078-12.074 9.469 0 0zm17.778 191.277c-25.399 0-44.797-20.144-47.828-44.695-1.418-11.516.777-23.445 6.878-33.383 2.508-4.082 7.153-11.394 11.809-12.976 5.48-1.864 15.688 5.355 22.27 7.558 7.23 2.067 15.125 3.2 22.66 2.512 1.273-.11 2.543-.219 3.816-.324-.5 8.488.559 17.734 3.461 25.738 1.094 3.477 2.402 7.313 4.336 10.41 2.621 5.156 5.883 10.485 9.988 14.602 5.043 5.828 5.586 5.527.575 11.922a49 49 0 01-10.024 9.586c-8.14 5.847-17.902 9.05-27.941 9.05zm136.234-69.343c0 .02-.008.03-.008.05-6.219 37.97-52.851 55.196-81.02 28.325-12.667-12.078-20.038-30-15.413-47.32 4.37-16.372 17.836-35.817 36.12-38.434 9.079-2.41 27.536-3.188 34.966 4.254.02.011.03.02.05.03h.008c.012 0 .012.013.02.013 18.82 10.324 28.511 33.73 25.382 52.476.168-1.027.137-.824-.105.606 0 .02.465-2.766 0 0zm37.316-1.192c-5.84 0-11.64-1.082-17.082-3.172.157-2.699.286-5.816-.02-8.55-.171-2.93-.648-5.786-1.062-8.688a94.884 94.884 0 00-.363-1.832c-.008-.02-.008-.039-.02-.059a39.178 39.178 0 00-.355-1.585c-.008-.051-.02-.09-.027-.141-2.461-9.25-7.524-24.965-16.008-30.645a35.375 35.375 0 00-1.219-1.332 11.932 11.932 0 00-.648-.68c-2.969-3.202-6.418-5.988-9.961-8.519.031-.11.058-.207.097-.305.079-.296.168-.582.266-.867a43.245 43.245 0 013.863-8.984 45.503 45.503 0 018.555-11.406c.266-.278.54-.543.816-.797.254-.258.512-.496.778-.73.215-.208.441-.403.668-.59.117-.122.234-.227.355-.317.235-.207.461-.402.696-.59 2.148-1.879 4.609-3.547 7.109-4.937 10.84 6.789 23.082 10.195 35.86 10.265-.012.13-.02.266-.04.407-.648 9.984.805 20.027 4.207 29.43 1.903 5.257 7.082 19.085 12.606 21.863.148.175.297.355.46.53 0 .013.012.032.04.04l.011.012c.305.355.618.707.946 1.05v.012a63.405 63.405 0 006.422 6.207c4.273 1.469 4.648 3.492 1.129 6.067-1.461 3.683-6.993 7.433-10.102 9.675-8.137 5.871-17.91 9.168-27.977 9.168zm80.633-28.554c-30.46 0-52.781-29.754-48.168-59.047 8.887-2.805 20.192-8.047 26.164-15.535a61.774 61.774 0 002.036-2.012c.117-.106.226-.215.324-.332a53.862 53.862 0 002.652-2.938c.266-.297.512-.59.758-.894a5.42 5.42 0 00.305-.367c1.464-1.766 3.55-4.2 4.62-6.344 2.551-3.863 4.81-8.13 6.43-12.469.121-.266.22-.543.325-.82 27.906-2.739 52.414 20.898 53.363 48.39.937 27.192-21.078 52.368-48.809 52.368zm113.758-241.637c-5.43 0-9.836-4.41-9.836-9.852 0-5.437 4.399-9.847 9.828-9.847h.008c5.434 0 9.832 4.41 9.832 9.847 0 5.442-4.398 9.852-9.832 9.852zm0 0"></path>
    <path d="M507.773 167.695c-8.789-36.222-35.16-67.203-78.43-92.183 6.223-9.453 38.348-71.063 15.485-74.86-13.91-2.308-13.836 21.903-16.43 30.493-4.378 14.5-10.918 28.492-20.304 40.437-.008 0-.008 0-.02.008-18.23 23.918-48.547 37.472-78.312 37.472-8.422-.457-13.559 10.086-7.871 16.395 3.921 4.352 10.558 3.426 15.78 3.094 19.243-1.211 38.54-7.29 54.977-17.36-18.984 70.297 27.625 122.895 83.114 158.52 0 0 .008.012.02.012.097.058.187.117.292.175 1.621 1.004 3.903 1.543 5.762 1.332a2.3 2.3 0 00.453-.05c.36-.035.711-.098 1.063-.188.605-.12 1.226-.367 1.789-.62.07-.02.136-.06.199-.09a1.14 1.14 0 00.195-.098c1.371-.688 2.563-1.727 3.473-2.965l.117-.157c1.293-1.863 31.578-46.093 18.648-99.367-8.789-36.222 12.93 53.274 0 0zm-24.511 67.578c-5.246-16.757-10.543-33.507-16.219-50.125-2.734-8.02-6.074-27.601-16.594-28.785-17.172-1.925-7.844 18.512-5.054 26.317 6.39 17.87 12.035 36.03 17.73 54.129-22.129-17.11-43.281-38.657-51.746-66.043-8.176-26.457-1.586-53.082 8.336-78.086 52.07 30.136 87.254 81.43 63.547 142.593-8.2-26.195 0 0 0 0zm0 0"></path>
  </symbol>
  <symbol fill="none" xmlns="http://www.w3.org/2000/svg" viewBox="0 0 65 69" id="happy">
    <path d="M60.03 19.665c.69-.69 1.38-1.38 1.725-2.07 2.415-3.105 2.07-4.485-.345-6.555-2.415-2.07-6.21 1.035-6.21 1.035l-.69.69c-3.795-3.45-8.625-6.21-14.145-7.59C38.295 2.07 35.19 0 31.74 0c-3.795 0-6.9 2.415-8.97 5.52-4.485 1.38-8.625 3.795-12.075 6.9-.69-.345-2.07-1.725-3.795-2.07-2.415-.345-4.83 1.38-5.175 3.795 0 1.38 1.38 3.45 3.105 5.52C1.725 24.495 0 30.015 0 36.225 0 53.82 14.49 68.31 32.43 68.31c6.21 0 12.42-1.725 17.25-4.83l-1.035-2.415c-4.485-11.385-3.45-18.63-3.105-22.08 1.035-3.795 4.83-8.97 6.9-11.73 1.38-1.725 3.45-3.45 5.52-5.52 2.76 4.14 4.14 8.97 4.14 14.49 0 7.935-3.45 15.18-8.625 20.7l2.07 1.725c5.865-5.865 9.315-13.8 9.315-22.425 0-6.21-1.725-11.73-4.83-16.56zM31.74 2.76c4.485 0 7.935 4.14 7.935 9.315s-3.45 9.315-7.935 9.315c-4.485 0-7.935-3.795-7.935-9.315s3.45-9.315 7.935-9.315zm0 21.39c5.865 0 10.695-5.52 10.695-12.075 0-1.38-.345-2.415-.69-3.795 4.14 1.38 7.59 3.45 10.695 6.21-2.76 2.415-6.9 5.52-8.97 6.9-3.105 2.415-8.28 4.83-12.42 4.83-4.14 0-6.21-1.725-9.315-3.105-2.76-1.38-7.245-6.555-9.315-8.625 2.76-2.415 5.865-4.14 8.97-5.52 0 1.035-.345 2.07-.345 3.105 0 6.9 4.83 12.075 10.695 12.075zM2.76 36.225c0-5.175 1.38-10.005 3.795-14.49L7.59 22.77s8.625 10.005 10.35 12.42c1.725 2.415-.345 4.14-1.725 10.35-1.035 4.83-1.035 11.385-1.035 14.49C7.59 54.51 2.76 45.885 2.76 36.225zm53.475-16.56c-1.38 1.38-6.21 5.52-10.35 12.075s-3.45 11.73-3.105 15.525c.345 3.795 1.38 7.245 1.725 8.625.345 1.035 1.725 4.83 2.07 5.865-4.14 2.07-8.97 3.45-13.8 3.45-5.52 0-10.35-1.38-14.835-3.795 0-11.73.69-13.455 1.035-15.18 0-1.725 1.035-5.175 2.07-7.935.69-2.415-.345-4.485-1.38-5.52C18.63 31.74 8.625 19.665 6.9 17.25c-2.07-2.415-2.415-3.45-.69-4.14 1.725-1.035 6.21 4.485 8.28 6.9 1.725 2.415 9.66 8.97 16.905 8.625 7.245-.345 12.42-4.14 14.49-5.52 1.725-1.38 10.695-8.625 12.075-9.66 1.38-1.035 3.105 0 2.76 1.035-.345 1.035-3.105 3.795-4.485 5.175z" fill="#292929"></path>
  </symbol>
  <symbol xmlns="http://www.w3.org/2000/svg" viewBox="0 0 36.663 36.664" id="inst">
    <path  d="M32.305 0H4.357A4.352 4.352 0 000 4.349v27.967c0 2.4 1.95 4.348 4.357 4.348h27.947a4.353 4.353 0 004.358-4.348V4.349A4.351 4.351 0 0032.305 0m-5.953 5.729c0-.632.513-1.146 1.146-1.146h3.438c.632 0 1.145.514 1.145 1.146v3.438c0 .633-.513 1.146-1.145 1.146h-3.438a1.146 1.146 0 01-1.146-1.146V5.729zm-7.978 5.612c3.894 0 7.051 3.149 7.051 7.033 0 3.885-3.157 7.034-7.051 7.034s-7.051-3.148-7.051-7.034c0-3.884 3.157-7.033 7.051-7.033M33.226 32.08c0 .633-.513 1.146-1.146 1.146H4.583a1.147 1.147 0 01-1.146-1.146V14.895H8.02c-.597.858-.798 2.462-.798 3.479 0 6.135 5.003 11.127 11.152 11.127s11.153-4.992 11.153-11.127c0-1.018-.145-2.596-.885-3.479h4.583V32.08z"></path>
  </symbol>
  <symbol fill="none" xmlns="http://www.w3.org/2000/svg" viewBox="0 0 64 64" id="lovely">
    <path d="M32 0C14.431 0 0 14.431 0 32c0 17.569 14.431 32 32 32 17.569 0 32-14.431 32-32C64 14.431 49.569 0 32 0zm0 61.49C15.686 61.49 2.51 48.314 2.51 32S15.686 2.51 32 2.51 61.49 15.686 61.49 32 48.314 61.49 32 61.49z" fill="#292929"></path>
    <path d="M32 48.627c-10.98 0-17.569-9.725-17.569-9.725l-2.196 1.569C21.02 51.765 32 51.45 32 51.45s10.98.627 19.765-10.98l-2.196-1.569S42.98 48.627 32 48.627zM21.333 35.451c7.53-3.451 8.785-7.843 8.785-10.04 0-2.509-1.569-5.333-4.392-5.333-3.138 0-4.393 1.57-4.393 1.57s-1.255-1.57-4.392-1.57c-2.823 0-4.392 3.138-4.392 5.334 0 2.196 1.255 6.588 8.784 10.039zm0-10.667c1.569-2.51 5.961-2.823 6.275.314 0 4.392-6.275 7.53-6.275 7.53s-6.274-3.138-6.274-7.53c.314-3.137 4.706-2.823 6.274-.314zm21.334 10.667c7.53-3.451 8.784-7.843 8.784-9.726 0-2.51-1.569-5.333-4.392-5.333-3.137 0-4.392 1.569-4.392 1.569s-1.255-1.569-4.392-1.569c-2.824 0-4.393 3.137-4.393 5.334 0 1.882 1.255 6.274 8.785 9.725zm0-10.667c1.568-2.51 5.96-2.823 6.274.314 0 4.392-6.274 7.53-6.274 7.53s-6.275-3.138-6.275-7.53c.314-3.137 4.706-2.823 6.275-.314z" fill="#292929"></path>
  </symbol>
  <symbol xmlns="http://www.w3.org/2000/svg" viewBox="0 0 46 57" id="marker">
    <path d="M23 0C15 0 0 6 0 23s23 34 23 34 23-17 23-34S31 0 23 0z" fill="#0f5a47"></path>
    <path d="M8.8 17.5c0-1.3.4-2.5 1.3-3.4.9-.9 2-1.3 3.3-1.3 1.4 0 2.5.4 3.4 1.2l-.6 1c-.3-.3-.7-.5-1.2-.7s-1-.3-1.4-.3c-1 0-1.9.3-2.5 1-.6.7-.9 1.5-.9 2.5s.3 1.9.9 2.6 1.5 1.1 2.5 1.1c.5 0 1-.1 1.5-.3.5-.2.9-.5 1.3-.9l.7.9c-1 1-2.2 1.5-3.5 1.5s-2.5-.5-3.4-1.4c-1-1-1.4-2.2-1.4-3.5zm9.8 4.6v-9.2h1.3v4h4.8v-4H26v9.2h-1.3v-4h-4.8v4h-1.3zm9.2-4.7c0-1.3.4-2.4 1.3-3.3.9-.9 2-1.3 3.4-1.3s2.5.4 3.4 1.3c.9.9 1.3 2 1.3 3.3 0 1.4-.4 2.5-1.3 3.4s-2 1.4-3.4 1.4-2.5-.5-3.4-1.4c-.8-.9-1.3-2-1.3-3.4zm1.3 0c0 1 .3 1.9 1 2.6s1.5 1 2.4 1c1 0 1.8-.3 2.4-1 .6-.7 1-1.6 1-2.6s-.3-1.8-1-2.5c-.6-.7-1.4-1-2.4-1s-1.8.3-2.4 1c-.6.7-1 1.5-1 2.5zM9.2 29.5c0-1.3.4-2.5 1.3-3.4.9-.9 2-1.3 3.3-1.3 1.4 0 2.5.4 3.4 1.2l-.6 1c-.3-.3-.7-.5-1.2-.7s-1-.3-1.4-.3c-1 0-1.9.3-2.5 1-.6.7-.9 1.5-.9 2.5s.3 1.9.9 2.6 1.5 1.1 2.5 1.1c.5 0 1-.1 1.5-.3.5-.2.9-.5 1.3-.9l.7.9c-1 1-2.2 1.5-3.5 1.5s-2.5-.5-3.4-1.4c-1-1-1.4-2.2-1.4-3.5zm9.1 0c0-1.3.4-2.5 1.3-3.4.9-.9 2-1.3 3.3-1.3 1.4 0 2.5.4 3.4 1.2l-.7 1c-.3-.3-.7-.5-1.2-.7s-1-.3-1.4-.3c-1 0-1.9.3-2.5 1-.6.7-.9 1.5-.9 2.5s.3 1.9.9 2.6 1.5 1.1 2.5 1.1c.5 0 1-.1 1.5-.3.5-.2.9-.5 1.3-.9l.7.9c-1 1-2.2 1.5-3.5 1.5-1.4 0-2.5-.5-3.4-1.4-.9-1-1.3-2.2-1.3-3.5zm9.1-.1c0-1.3.4-2.4 1.3-3.3.9-.9 2-1.3 3.4-1.3s2.5.4 3.4 1.3c.9.9 1.3 2 1.3 3.3 0 1.4-.4 2.5-1.3 3.4s-2 1.4-3.4 1.4-2.5-.5-3.4-1.4c-.9-.9-1.3-2-1.3-3.4zm1.3 0c0 1 .3 1.9 1 2.6s1.5 1 2.4 1c1 0 1.8-.3 2.4-1 .6-.7 1-1.6 1-2.6s-.3-1.8-1-2.5c-.6-.7-1.4-1-2.4-1s-1.8.3-2.4 1c-.7.7-1 1.5-1 2.5z"></path>
  </symbol>
  <symbol xmlns="http://www.w3.org/2000/svg" viewBox="0 0 22.3 18.9" id="muscle">
    <path d="M7.3 11.6c-.3-.7-.9-2-1.7-2.7-1.2-1-2.1-2.4-2.5-3.8 0-.5.3-1 1-1.2 0 0 .2 1 .7 1s.8-.2 1.4-.9c.6-.7.7-.8.7-.8s.5-.8 0-1.2S5.1.7 5.1.7 4.5.5 4.2.5s-.9 0-1.4.5C2.2 1.4 1 2.6 1 2.6s-.6.8-.6 1.9c0 1.2.4 4.8.4 4.8s.5 2.5 1.1 4.1c.6 1.6 1.9 3.3 3.1 4.3.4.4.9.7 1.1.7.6 0 1.4-.6 2.1-.6.7 0 2.1.6 3.4.6s5.3-.9 6.8-5.8c0 0 3.5-.8 3.5-4.5s-3.1-4.6-4.4-4.6-4.5.9-4.5 4.2v.6s-.7-.5-1.8-.5-3.4.7-3.6 3.7l-.3.1z" fill="none" stroke="#000" stroke-width=".75" stroke-miterlimit="10"></path>
  </symbol>
  <symbol xmlns="http://www.w3.org/2000/svg" viewBox="0 0 498.613 498.613" id="nut">
    <path d="M450.231 117.215a7.498 7.498 0 00-10.449-1.816 7.499 7.499 0 00-1.816 10.45c26.108 37.095 39.908 79.786 39.908 123.458 0 56.535-23.323 111.31-65.674 154.235-31.918 32.351-73.081 56.518-118.814 70.244-9.156-7.448-14.702-22.076-17.242-46.35 9.316 8.669 21.791 13.987 35.491 13.987a52.068 52.068 0 0040.613-19.436c1.26.092 2.518.139 3.766.139 28.758 0 52.154-23.396 52.154-52.154a52.13 52.13 0 00-1.57-12.759c13.721-5.632 25.921-14.997 34.891-26.901 10.885-14.445 16.638-31.664 16.638-49.797 0-18.059-5.844-35.444-16.592-49.738a52.116 52.116 0 0016.5-38.064c0-25.479-18.113-46.705-42.434-51.248-.579-23.15-16.217-42.899-38.24-48.937-7.174-25.679-30.74-43.838-57.825-43.838-13.35 0-25.692 4.383-35.674 11.78 5.504-13.186 13.173-24.236 22.343-31.533 44.329 15.451 83.52 40.857 113.623 74.218a7.499 7.499 0 0010.593.543 7.5 7.5 0 00.544-10.592C385.935 43.205 321.794 10.166 250.356.074a7.447 7.447 0 00-2.098 0c-66.83 9.441-128.1 39.438-172.522 84.463C30.598 130.287 5.74 188.803 5.74 249.307s24.858 119.02 69.996 164.77c44.423 45.025 105.692 75.021 172.522 84.463a7.518 7.518 0 002.098 0c66.83-9.441 128.099-39.438 172.521-84.463 45.138-45.75 69.996-104.266 69.996-164.77 0-46.78-14.745-92.456-42.642-132.092zM319.534 63.69c21.584 0 40.188 15.365 44.238 36.535a7.5 7.5 0 006.085 5.98c17.172 2.978 29.802 17.374 30.702 34.622-11.921 1.2-22.974 6.42-31.56 15.006a7.498 7.498 0 00-.001 10.606 7.476 7.476 0 005.304 2.197 7.474 7.474 0 005.303-2.197c7.019-7.018 16.35-10.882 26.273-10.882.178 0 .35-.038.519-.092.354.067.712.118 1.077.134 19.939.841 35.559 17.143 35.559 37.113a37.118 37.118 0 01-11.58 26.93c-15.343-14.185-35.155-21.97-56.17-21.97-4.143 0-7.5 3.358-7.5 7.5s3.357 7.5 7.5 7.5c18.121 0 35.158 7.057 47.971 19.871.372.372.774.696 1.198.974.26.44.565.858.916 1.243a67.663 67.663 0 0117.758 45.756c0 14.849-4.709 28.947-13.617 40.77-7.365 9.773-17.385 17.447-28.646 22.056a52.062 52.062 0 00-44.849-25.524c-13.931 0-27.027 5.425-36.879 15.276a7.5 7.5 0 0010.607 10.606c7.018-7.018 16.348-10.882 26.271-10.882a37.107 37.107 0 0134.238 22.695l.003.005.006.017a36.93 36.93 0 012.907 14.438c0 18.879-14.157 34.503-32.412 36.841a52.09 52.09 0 003.034-17.544c0-4.142-3.357-7.5-7.5-7.5s-7.5 3.358-7.5 7.5a36.977 36.977 0 01-6.204 20.561c-.01.014-.022.026-.032.041-6.922 10.364-18.48 16.552-30.919 16.552-20.486 0-37.153-16.667-37.153-37.154 0-10.333 4.151-19.936 11.688-27.039a7.501 7.501 0 00.772-10.069c-8.152-10.459-12.461-22.999-12.461-36.261 0-18.289 8.286-35.255 22.734-46.549.067-.052.126-.113.191-.167 10.42-8.076 22.909-12.347 36.137-12.347 4.143 0 7.5-3.358 7.5-7.5s-3.357-7.5-7.5-7.5c-14.464 0-28.224 4.077-40.178 11.837-12.054-12.865-18.884-29.913-18.884-47.655 0-18.473 7.16-35.881 20.162-49.018.026-.026.047-.055.072-.082 13.184-13.282 30.744-20.597 49.462-20.597 4.143 0 7.5-3.358 7.5-7.5s-3.357-7.5-7.5-7.5c-20.503 0-39.851 7.241-55.204 20.486-9.158-8.477-14.493-20.45-14.493-33.065.002-24.843 20.213-45.054 45.055-45.054zM20.739 249.306c0-56.535 23.323-111.31 65.674-154.235 28.917-29.309 65.419-51.906 106.035-66.105 9.151 7.297 16.803 18.334 22.299 31.498-9.981-7.393-22.321-11.775-35.667-11.775-27.086 0-50.652 18.159-57.825 43.838-22.023 6.038-37.661 25.786-38.24 48.937-24.319 4.543-42.434 25.769-42.434 51.248a52.112 52.112 0 0016.5 38.064c-10.749 14.294-16.593 31.679-16.593 49.738 0 1.78.057 3.576.17 5.339.264 4.135 3.861 7.275 7.962 7.007a7.5 7.5 0 007.007-7.962 69.4 69.4 0 01-.139-4.384 67.657 67.657 0 0117.758-45.755c.352-.385.657-.803.917-1.245a7.544 7.544 0 001.195-.972c12.814-12.813 29.852-19.871 47.973-19.871 4.143 0 7.5-3.358 7.5-7.5s-3.357-7.5-7.5-7.5c-21.015 0-40.827 7.786-56.17 21.971a37.119 37.119 0 01-11.58-26.931c0-19.97 15.618-36.271 35.558-37.113a7.317 7.317 0 001.078-.134c.169.054.341.092.519.092 9.924 0 19.254 3.865 26.272 10.882 1.464 1.465 3.384 2.197 5.303 2.197s3.839-.732 5.304-2.197a7.498 7.498 0 00-.001-10.606c-8.586-8.586-19.639-13.807-31.559-15.006.9-17.248 13.53-31.645 30.702-34.622a7.5 7.5 0 006.085-5.981c4.049-21.169 22.653-36.534 44.238-36.534 24.843 0 45.054 20.211 45.054 45.054 0 12.615-5.335 24.588-14.492 33.065-15.354-13.245-34.702-20.486-55.204-20.486-4.143 0-7.5 3.358-7.5 7.5s3.357 7.5 7.5 7.5c18.719 0 36.282 7.318 49.468 20.603.023.024.043.051.066.075 13.002 13.138 20.162 30.546 20.162 49.018 0 17.741-6.83 34.79-18.884 47.656-11.956-7.76-25.715-11.837-40.179-11.837-4.143 0-7.5 3.358-7.5 7.5s3.357 7.5 7.5 7.5c13.229 0 25.719 4.272 36.141 12.35.063.053.121.112.187.164 14.448 11.294 22.734 28.26 22.734 46.549 0 13.263-4.309 25.802-12.461 36.261a7.5 7.5 0 00.771 10.069c7.538 7.103 11.689 16.705 11.689 27.039 0 20.487-16.667 37.154-37.154 37.154-12.438 0-23.996-6.188-30.918-16.552-.011-.017-.025-.031-.037-.047a36.97 36.97 0 01-6.2-20.555c0-4.142-3.357-7.5-7.5-7.5s-7.5 3.358-7.5 7.5a52.11 52.11 0 003.033 17.544c-18.254-2.337-32.412-17.962-32.412-36.841 0-5.01.979-9.867 2.908-14.437l.008-.021.001-.002a37.106 37.106 0 0134.237-22.694c9.925 0 19.255 3.865 26.272 10.882a7.5 7.5 0 0010.607-10.606c-9.852-9.851-22.948-15.276-36.88-15.276a52.058 52.058 0 00-44.849 25.524c-15.431-6.293-28.182-18.159-35.518-33.299a7.5 7.5 0 00-13.499 6.541c8.941 18.454 24.471 32.942 43.279 40.634a52.13 52.13 0 00-1.569 12.753c0 28.758 23.396 52.154 52.154 52.154 1.248 0 2.506-.046 3.767-.139a52.067 52.067 0 0040.612 19.436c13.699 0 26.174-5.317 35.49-13.985-2.541 24.27-8.085 38.9-17.241 46.348-45.733-13.727-86.895-37.893-118.814-70.244-42.346-42.925-65.67-97.699-65.67-154.235zm228.568 234.23a306.968 306.968 0 01-27.594-5.303c12.227-15.78 17.42-43.284 17.42-88.965 0-12.089-4.272-23.845-11.892-33.125 7.799-11.979 11.892-25.768 11.892-40.243 0-20.102-7.977-38.925-22.14-52.8 14.157-15.53 22.14-35.908 22.14-57.081 0-19.694-6.695-38.391-19.006-53.462 12.023-11.278 19.006-27.129 19.006-43.813 0-18.854-3.677-37.605-10.632-54.229-5.116-12.229-11.776-22.654-19.59-30.78a306.154 306.154 0 0140.396-8.659 308.567 308.567 0 0140.409 8.644c-7.82 8.128-14.485 18.557-19.604 30.794-6.955 16.623-10.631 35.375-10.631 54.229 0 16.685 6.982 32.535 19.005 43.813-12.31 15.071-19.005 33.767-19.005 53.462 0 21.174 7.982 41.551 22.139 57.081-14.162 13.875-22.139 32.699-22.139 52.8 0 14.476 4.092 28.263 11.892 40.243-7.619 9.281-11.892 21.037-11.892 33.125 0 45.681 5.193 73.185 17.42 88.965a306.338 306.338 0 01-27.594 5.304z"></path>
  </symbol>
  <symbol xmlns="http://www.w3.org/2000/svg" viewBox="-85 0 512 512.002" id="oat">
    <path d="M244.648 305.39c9.782 15.598 25.305 24.067 41.856 24.067 7.695 0 15.613-1.828 23.297-5.625l29.816-10.52-19.879-24.57c-8.297-13.234-20.761-21.137-34.441-23.289 10.367-.676 20.664-4.59 29.629-12.148l26.437-17.325-25.18-19.132c-5.73-5.551-12.23-9.348-19.023-11.77 5.668-4.328 10.61-9.953 14.38-16.894l18.269-25.774-30.391-8.62c-11.914-4.977-24.063-5.356-34.934-1.927 7.72-6.164 13.704-14.785 16.934-25.441l12.727-28.942-31.528-2.32c-26.512-5.14-50.187 9.086-58.015 34.918l-10.153 23.117a174.082 174.082 0 00-20.52-20.03l24.407-12.958c25.172-9.71 37.644-34.422 30.512-60.45l-4.645-31.26-27.918 14.82c-25.172 9.718-37.644 34.43-30.508 60.456l3.832 25.829c-8.379-6.477-17.414-12.137-26.953-16.98l11.934-21.696c15.75-21.914 12.652-49.418-7.559-67.29L126.008 0l-15.235 27.684c-15.742 21.914-12.644 49.421 7.579 67.304l9.953 11.18c-2.196-.867-4.34-1.809-6.578-2.586-3.872-1.332-7.91.207-10.172 3.395l-16.36-18.809C80.04 65.859 53.16 59.281 29.41 72.094L0 83.676l20.746 23.84c9.98 14.707 25.043 22.57 40.953 22.57 2.664 0 5.356-.305 8.047-.754-12.723 4.934-23.144 15.074-28.555 29.5l-14.55 28.07 31.308 4.328c4.723 1.243 9.414 1.844 13.965 1.844 8.137 0 15.813-1.988 22.64-5.597-2.472 7.414-3.425 15.55-2.175 24.171l.773 31.598 29.52-11.285c2.445-.613 4.695-1.504 6.945-2.395-.73 2.422-1.43 4.868-1.836 7.477l-8.547 30.426 31.536-2.114c.394.02.761-.054 1.168-.042a52.681 52.681 0 00-12.598 16.722l-16.992 26.645 30.804 7.101c3.61 1.305 7.2 2.098 10.782 2.617-13.184 1.11-25.73 7.516-35.016 19.235l-22.453 22.246 28.453 13.73c8.883 5.688 18.46 8.454 27.836 8.454 14.617 0 28.746-6.723 38.96-19.602l1.243-1.234c-28.098 67.875-88.582 117.703-168.316 132.93a9.006 9.006 0 00-7.153 10.53A9.01 9.01 0 0036.316 512c.567 0 1.125-.05 1.692-.16 81.086-15.48 143.691-64.192 176.008-131.113l-1.243 26.476c-4.464 26.613 10.442 49.938 36.465 57.067l29.258 11.921 1.477-31.558c4.46-26.621-10.442-49.945-36.465-57.063l-27.332-11.16c4.922-10.754 8.933-22.023 12.265-33.62l3.805 13.44c4.192 26.649 25.684 44.133 52.652 42.579l31.543 2.05-8.601-30.406c-4.192-26.668-25.89-44.144-52.656-42.578l-22.649-1.465c2.106-9.883 3.68-19.988 4.598-30.332zM203.16 59.935l6.965-3.618.98 6.625.243 1.141c4.941 17.297-3.067 33.164-19.914 39.465l-6.965 3.617-.985-6.617-.242-1.14c-4.941-17.298 3.07-33.165 19.918-39.473zM125.63 37.84l3.863-6.856 4.453 5.012.836.82c13.598 11.778 15.578 29.434 4.942 43.926l-3.864 6.856-4.445-5.004-.836-.82c-13.598-11.778-15.586-29.434-4.95-43.934zm104.969 371.933l.441-7.847 6.191 2.523 1.118.367c17.394 4.575 26.96 19.547 23.8 37.258l-.441 7.848-6.2-2.52-1.097-.37c-17.402-4.579-26.973-19.548-23.812-37.259zm24.558-63.855l.586-.04c17.863-1.257 31.758 10 34.367 27.794l2.063 7.586-7.266-.469-.582.035c-17.836 1.332-31.761-9.988-34.37-27.789l-2.06-7.586zm-17.07-69.8c.035-2.583.242-5.114.207-7.723-.137-8.81-.953-17.485-2.32-26.008l11.277 8.57c7.918 7.668 17.215 12.266 26.852 13.95a52.922 52.922 0 00-19.52 5.39zm-12.574-71.716l22.14 6.274c1.375.574 2.762 1.05 4.149 1.512-1.09.789-2.242 1.43-3.293 2.32l-16.192 10.617a178.035 178.035 0 00-6.804-20.723zm79.207 94.258l4.875 6.164-6.309 2.223-1.07.469c-16.047 8.117-33.145 3.293-42.54-12.043l-4.886-6.16 6.309-2.223 1.07-.469c16.055-8.129 33.144-3.293 42.55 12.04zm5.453-63.777l-5.59 3.672-.934.703c-13.652 11.754-31.39 11.125-44.18-1.531l-6.198-4.813 5.585-3.664.938-.703c13.645-11.75 31.398-11.121 44.176 1.523zm-17.324-64.336l7.539 2.215-3.867 5.453-.614.988c-8.422 15.902-25.18 21.797-41.703 14.688l-7.523-2.207 3.87-5.454.614-.988c8.402-15.91 25.16-21.832 41.684-14.695zm-71.555-33.766l.398-1.097c5.04-17.262 20.22-26.457 37.875-22.786l7.829.649-2.688 6.129-.406 1.097c-5.04 17.27-20.293 26.43-37.867 22.786l-7.84-.649zm2.105 24.532a56.255 56.255 0 0010.7 1.054c5.273 0 10.332-.828 15.093-2.332a52.653 52.653 0 00-13.652 16.246L221.762 195.7c-5.934-12.941-13.32-25.07-22.04-36.133zm-23.074 31.714l-19.976 1.34c-7.723-.387-14.903.918-21.457 3.387 1.945-6.84 2.62-14.238 1.496-22.031l-.766-31.086c16.656 13.12 30.461 29.636 40.703 48.39zM35.402 97.06l-5.093-5.985 6.226-2.445 1.055-.504c15.73-8.723 32.992-4.484 42.937 10.488l5.09 5.985-6.226 2.449-1.051.504c-15.73 8.71-32.992 4.48-42.938-10.492zm51.125 26.53l23.688-9.343c.719 2.836 2.652 5.309 5.625 6.344 15.883 5.508 30.433 13.61 43.348 23.695l-29.102 11.121c-4.356 1.09-8.29 2.782-12.016 4.727 0 0 .012-.008.012-.016l14.55-28.05-31.308-4.34c-7.351-1.934-14.535-2.16-21.347-1.141a55.999 55.999 0 006.55-2.996zm-24.414 50.134l-7.777-1.16 3.086-5.942.476-1.07c6.13-16.91 21.915-25.078 39.258-20.309l7.774 1.16-3.086 5.93-.477 1.082c-6.137 16.899-21.93 25.05-39.254 20.309zm55.77 40.882l-7.371 2.739-.164-6.688-.106-1.168c-2.773-17.773 7.125-32.523 24.613-36.71l7.368-2.735.164 6.687.11 1.168c2.776 17.774-7.122 32.524-24.614 36.707zm32.828 32.715l-7.262.485 1.809-6.434.23-1.152c2.457-16.973 15.11-27.934 31.844-27.934.816 0 1.645.028 2.473.082l.586.035 7.261-.484-1.808 6.445-.235 1.153c-2.574 17.797-16.171 29.039-34.312 27.851zm52.621-24.64l4.184-14.895c6.922 16.442 11.132 34.242 12.34 52.727l-17.864-4.121c-5.113-1.844-10.207-2.692-15.219-2.996 8.594-7.461 14.586-17.98 16.559-30.715zm-52.117 74.191l3.59-5.644.566-1.024c7.613-16.3 24.055-23.023 40.902-16.742l7.653 1.848-3.594 5.64-.566 1.016c-7.614 16.308-24.082 23.058-40.91 16.742zm37.41 53.195l-.773.883c-11.043 14.207-28.555 17.14-43.602 7.278l-7.047-3.48 4.762-4.708.773-.883c11.032-14.21 28.543-17.144 43.602-7.281l7.047 3.484zm7.074-23.578c-6.535-4.187-13.453-6.605-20.383-7.695 17.106-1.371 32.278-11.52 40.504-28.656l4.086-6.407c-.793 17.575-3.43 34.52-7.8 50.676zm0 0"></path>
  </symbol>
  <symbol xmlns="http://www.w3.org/2000/svg" viewBox="0 0 16 22" id="play">
    <path d="M0 2.4v17.2c0 1.9 2 3.1 3.5 2L15 13c1.3-.9 1.3-3 0-3.9L3.5.4C2-.7 0 .5 0 2.4z" fill="#fff"></path>
  </symbol>
  <symbol xmlns="http://www.w3.org/2000/svg" viewBox="0 0 511 511" id="powder">
    <circle cx="135.5" cy="175.5" r="7.5"></circle>
    <circle cx="183.5" cy="175.5" r="7.5"></circle>
    <circle cx="159.5" cy="207" r="7.5"></circle>
    <circle cx="207.5" cy="207" r="7.5"></circle>
    <circle cx="63" cy="207" r="7.5"></circle>
    <circle cx="111.5" cy="207" r="7.5"></circle>
    <circle cx="159.5" cy="144" r="7.5"></circle>
    <circle cx="111.5" cy="144" r="7.5"></circle>
    <circle cx="88" cy="175.5" r="7.5"></circle>
    <path d="M487.5 224h-71.392c-4.143 0-7.5 3.358-7.5 7.5s3.357 7.5 7.5 7.5H487.5c4.687 0 8.5 3.813 8.5 8.5v2.446a8.474 8.474 0 01-7.103 8.385l-226.631 37.771a7.5 7.5 0 00-6.267 7.398v40c0 31.154-25.346 56.5-56.5 56.5h-128C40.346 400 15 374.654 15 343.5V239h364.326c4.143 0 7.5-3.358 7.5-7.5s-3.357-7.5-7.5-7.5H268.581c-4.269-10.311-15.456-35.376-32.9-60.749C205.433 119.255 170.791 96 135.5 96s-69.933 23.255-100.181 67.251C13.056 195.635.98 227.525.478 228.867c-.015.04-.023.081-.037.121a7.54 7.54 0 00-.19.62c-.019.073-.04.146-.056.219-.05.219-.088.441-.119.666-.008.059-.021.118-.027.177a7.34 7.34 0 00-.049.83v112C0 382.925 32.075 415 71.5 415h128c39.425 0 71.5-32.075 71.5-71.5v-33.646l220.364-36.727A23.428 23.428 0 00511 249.946V247.5c0-12.958-10.542-23.5-23.5-23.5zm-352-113c61.131 0 103.635 83.529 116.725 113H18.768C31.837 194.529 74.29 111 135.5 111z"></path>
  </symbol>
  <symbol stroke="#b0f7ff" fill="none" xmlns="http://www.w3.org/2000/svg" viewBox="0 0 16 15.2" id="sheet">
    <path d="M2.4 14.9S5.3 9 12.3 9.6m-8 2.7s-.8-5.4 5.1-5.5c4.5.3 6.1 2.7 6.1 2.7s-2 4.3-7 4.8c-1.6.1-3.6-1-3.6-1m-2.1-1.2s-.1-2.2-.4-3.2-.4-3.6.3-5.1"></path>
    <path d="M2.3 9.4s-2-1-1.8-3.8S3 .6 3 .6s4.1 3.7.6 7.9"></path>
  </symbol>
  <symbol fill="none" xmlns="http://www.w3.org/2000/svg" viewBox="0 0 39 37" id="sheets2">
    <path d="M5.687 22.47c0 .487.243.973.243 1.458 0 1.944.242 5.102.242 5.102h1.215s0-5.102-.729-7.774c-.728-2.915-.971-8.259.729-12.146l-1.215-.485s-1.457 2.915-1.457 7.53c0 2.915.243 4.13.486 5.344-.972-.729-3.644-3.158-3.401-8.259.486-5.83 5.587-11.174 5.587-11.174s8.988 8.502.972 17.976l.971.728s3.644-4.13 3.644-8.745c0-4.615-1.943-8.502-5.587-11.66 0 0-6.316 6.073-6.802 13.36-.243 6.803 4.859 9.232 4.859 9.232l.243-.486z" fill="#C6F7FF"></path>
    <path d="M18.318 16.155c-8.988 2.672-8.502 11.417-8.259 13.36-3.158 3.158-4.615 6.074-4.615 6.074l.971.485c9.231-15.303 23.563-12.388 23.563-12.388V22.47c-8.745-.972-14.818 2.43-18.947 5.83-.243-3.158 1.214-10.688 10.445-11.417 10.689-.243 15.79 6.073 15.79 6.073-5.587 8.988-11.903 10.202-15.79 10.688-4.13.729-9.23-2.186-9.23-2.186l-.486.972s4.372 2.915 9.96 2.429c12.145-1.458 16.76-12.146 16.76-12.146-1.214-2.43-10.202-8.988-20.162-6.559z" fill="#C6F7FF"></path>
  </symbol>
  <symbol xmlns="http://www.w3.org/2000/svg" viewBox="0 0 37.453 31.21" id="twitter">
    <path d="M36.421.577a15.112 15.112 0 01-4.884 1.909A7.575 7.575 0 0025.93 0c-4.24 0-7.682 3.528-7.682 7.879 0 .618.066 1.217.198 1.794-6.385-.329-12.047-3.462-15.839-8.235a8.02 8.02 0 00-1.04 3.966c0 2.731 1.356 5.144 3.418 6.557a7.547 7.547 0 01-3.481-.981v.096c0 3.819 2.648 7.004 6.167 7.725a7.292 7.292 0 01-2.025.277c-.495 0-.979-.047-1.447-.139.979 3.129 3.815 5.408 7.179 5.469a15.172 15.172 0 01-9.544 3.375c-.619 0-1.232-.037-1.833-.109a21.388 21.388 0 0011.778 3.537c14.136 0 21.863-12.004 21.863-22.417 0-.343-.006-.685-.021-1.021a15.749 15.749 0 003.832-4.078 15.04 15.04 0 01-4.412 1.24 7.861 7.861 0 003.38-4.358"></path>
  </symbol>
  <symbol stroke="#b0f7ff" fill="none" xmlns="http://www.w3.org/2000/svg" viewBox="0 0 18.2 14.8" id="van">
    <path d="M1.9 12h8.3c.4 0 .8-.3.8-.8V3c0-.4-.3-.8-.8-.8H1.9c-.5 0-.8.4-.8.8v8.3c0 .4.3.7.8.7z"></path>
    <path d="M11.2 3.8h3.6s.4 0 .9.5c.2.2.4.5.7.9.5.7 1.1 1.4 1.1 1.4s.4.4.4 1.1v3.5s.1.8-1.1.8h-6.3"></path>
    <circle cx="4.7" cy="12.4" r="1.9"></circle>
    <circle cx="14.1" cy="12.4" r="1.9"></circle>
    <circle cx="4" cy="4.2" r="3.7"></circle>
    <path d="M2.7 5.5l1.4-1.1V1.9"></path>
    <circle cx="4" cy="4.4" r=".5"></circle>
    <path d="M17.7 8.1h-4s-.6-.1-.6-.8V5.8s0-.5.7-.5h2.5"></path>
  </symbol>
  <symbol xmlns="http://www.w3.org/2000/svg" xmlns:xlink="http://www.w3.org/1999/xlink" viewBox="0 0 126 72" id="vk">
    <defs>
      <path id="a" d="M0 0h126v72H0z"></path>
    </defs>
    <clipPath id="b">
      <use xlink:href="#a" overflow="visible"></use>
    </clipPath>
    <path clip-path="url(#b)" d="M124.523 64.503a8.35 8.35 0 00-.426-.816c-2.172-3.91-6.324-8.711-12.449-14.401l-.129-.134-.066-.063-.066-.066h-.063c-2.781-2.651-4.543-4.434-5.281-5.344-1.348-1.738-1.652-3.5-.914-5.281.523-1.348 2.477-4.19 5.867-8.538a447.262 447.262 0 004.234-5.539c7.52-9.996 10.777-16.383 9.777-19.164l-.387-.649c-.262-.39-.934-.75-2.02-1.074-1.086-.327-2.477-.383-4.172-.163l-18.772.127c-.301-.105-.738-.099-1.301.034l-.852.195-.323.166-.258.195c-.219.129-.457.354-.719.683a4.443 4.443 0 00-.648 1.142c-2.047 5.258-4.367 10.145-6.977 14.663-1.609 2.695-3.086 5.031-4.434 7.009-1.348 1.976-2.477 3.434-3.387 4.366-.914.935-1.738 1.685-2.477 2.246-.742.567-1.305.806-1.695.72-.391-.091-.762-.177-1.109-.263a4.288 4.288 0 01-1.465-1.597c-.371-.672-.621-1.52-.75-2.543a28.65 28.65 0 01-.23-2.637c-.02-.738-.008-1.785.035-3.129.043-1.349.066-2.263.066-2.738 0-1.653.031-3.446.094-5.379.066-1.935.121-3.465.164-4.594.043-1.13.066-2.324.066-3.587 0-1.258-.078-2.245-.23-2.965a9.987 9.987 0 00-.684-2.086c-.305-.672-.75-1.194-1.336-1.562-.586-.371-1.313-.664-2.18-.883-2.305-.521-5.238-.802-8.8-.849-8.082-.086-13.274.438-15.579 1.567-.914.476-1.738 1.129-2.476 1.953-.781.957-.891 1.479-.328 1.565 2.609.392 4.453 1.325 5.543 2.802l.39.784c.305.563.61 1.563.911 2.996.304 1.435.5 3.021.585 4.758.219 3.173.219 5.888 0 8.149-.214 2.257-.421 4.019-.617 5.277-.195 1.262-.488 2.28-.879 3.065-.39.782-.652 1.258-.785 1.435-.129.172-.238.28-.324.323a4.815 4.815 0 01-1.762.328c-.605 0-1.344-.304-2.215-.914-.867-.608-1.769-1.444-2.703-2.512-.933-1.062-1.988-2.55-3.164-4.464-1.172-1.911-2.386-4.168-3.648-6.778l-1.043-1.89c-.653-1.215-1.543-2.985-2.672-5.313a100.975 100.975 0 01-2.996-6.745c-.348-.91-.871-1.605-1.567-2.087l-.324-.194c-.219-.172-.566-.356-1.043-.556a7.006 7.006 0 00-1.5-.422l-17.858.133c-1.824 0-3.063.414-3.715 1.238l-.262.392C.066 5.113 0 5.46 0 5.938c0 .48.129 1.065.391 1.762a215.077 215.077 0 008.507 17.725c3.063 5.696 5.723 10.278 7.981 13.754a161.747 161.747 0 006.91 9.84c2.348 3.086 3.902 5.063 4.66 5.935a43.02 43.02 0 001.793 1.953l1.629 1.565c1.043 1.043 2.574 2.293 4.598 3.746 2.02 1.457 4.258 2.891 6.711 4.305 2.457 1.41 5.312 2.563 8.574 3.453 3.258.892 6.43 1.25 9.516 1.074h7.496c1.52-.129 2.672-.609 3.453-1.433l.258-.324c.176-.262.34-.665.488-1.208.152-.542.23-1.14.23-1.792-.043-1.868.098-3.551.422-5.051.324-1.496.695-2.625 1.109-3.388.414-.762.879-1.401 1.402-1.922.52-.522.891-.836 1.109-.944.215-.11.387-.185.52-.231 1.043-.347 2.27-.007 3.684 1.012 1.41 1.024 2.734 2.281 3.977 3.781 1.238 1.5 2.727 3.184 4.461 5.051 1.742 1.867 3.262 3.258 4.563 4.172l1.305.781c.871.524 2 1 3.391 1.435 1.391.437 2.605.547 3.648.327l16.688-.262c1.648 0 2.934-.272 3.844-.815.914-.544 1.453-1.142 1.629-1.789.176-.653.184-1.392.035-2.22-.158-.824-.31-1.402-.459-1.727zm0 0"></path>
  </symbol>
  <symbol xmlns="http://www.w3.org/2000/svg" viewBox="0 0 18 22" id="volume">
    <path d="M15.9.3L7.4 6.6C6.7 6.2 5.9 6 5 6c-2.8 0-5 2.2-5 5s2.2 5 5 5c.9 0 1.7-.2 2.4-.6l8.5 6.4c.9.7 2.1 0 2.1-1.1V1.4C18 .3 16.8-.4 15.9.3z" fill="#626262"></path>
  </symbol>
  <symbol xmlns="http://www.w3.org/2000/svg" viewBox="0 0 512.001 512.001" id="beans">
    <path d="M242.488 120.593c-3.526-4.394-9.945-5.097-14.337-1.571-5.263 4.224-11.622 6.457-18.39 6.457-6.768 0-13.127-2.232-18.39-6.457-4.392-3.527-10.811-2.823-14.337 1.571-3.526 4.392-2.823 10.811 1.571 14.337 8.795 7.058 19.859 10.946 31.156 10.946 11.297 0 22.361-3.888 31.156-10.946 4.394-3.526 5.097-9.944 1.571-14.337z"></path>
    <path d="M504.631 264.492c-8.163-22.526-22.391-41.812-41.147-55.774-13.269-9.878-28.419-16.679-44.683-20.203 3.462-32.092-6.464-65.395-27.393-90.697-22.63-27.358-55.115-42.424-91.47-42.424h-5.942c-25.451 0-50.164 9.038-71.469 26.135-3.653 2.932-8.068 4.482-12.766 4.482s-9.113-1.55-12.766-4.482c-21.304-17.099-46.018-26.135-71.469-26.135h-5.942c-26.268 0-50.843 7.958-71.069 23.014C29.76 92.37 15.532 111.657 7.369 134.182c-8.129 22.435-9.564 46.232-4.149 68.822 5.843 24.371 19.547 46.11 39.632 62.866a261.144 261.144 0 0049.861 32.725c-.727 11.66.258 23.342 2.985 34.719 5.843 24.371 19.547 46.11 39.632 62.866 46.708 38.966 105.984 60.427 166.909 60.427s120.202-21.459 166.909-60.427c20.085-16.756 33.789-38.495 39.631-62.866 5.416-22.588 3.982-46.387-4.148-68.822zM95.972 277.276a240.883 240.883 0 01-40.053-27.067c-39.007-32.542-40.749-77.682-29.372-109.077 11.446-31.588 41.898-65.34 93.039-65.34h5.942c20.758 0 41.057 7.485 58.702 21.646 7.208 5.786 16.276 8.971 25.533 8.971s18.325-3.186 25.533-8.971c17.644-14.162 37.944-21.646 58.702-21.646h5.942c30.165 0 57.068 12.44 75.754 35.029 17.351 20.974 25.637 48.509 22.887 75.049a128.576 128.576 0 00-6.163-.165h-5.942c-25.451 0-50.164 9.038-71.469 26.135-3.653 2.932-8.067 4.481-12.766 4.481s-9.113-1.55-12.766-4.481c-21.305-17.099-46.018-26.135-71.469-26.135h-5.942c-26.268 0-50.843 7.958-71.069 23.014-18.756 13.962-32.985 33.249-41.147 55.774a124.227 124.227 0 00-3.876 12.783zm360.11 103.242c-43.047 35.914-97.683 55.692-153.843 55.692s-110.796-19.779-153.843-55.692c-39.007-32.541-40.749-77.682-29.373-109.077 11.447-31.588 41.898-65.34 93.039-65.34h5.942c20.758 0 41.057 7.485 58.702 21.646 7.208 5.785 16.276 8.971 25.533 8.971s18.324-3.186 25.533-8.971c17.645-14.161 37.944-21.646 58.702-21.646h5.942c51.141 0 81.592 33.753 93.039 65.34 11.376 31.395 9.633 76.536-29.373 109.077z"></path>
    <path d="M333.342 249.52c-3.526-4.393-9.944-5.096-14.337-1.571-5.263 4.224-11.622 6.457-18.39 6.457-6.768 0-13.126-2.232-18.39-6.457-4.392-3.526-10.811-2.823-14.337 1.571-3.526 4.392-2.823 10.811 1.571 14.337 8.795 7.058 19.86 10.946 31.156 10.946s22.361-3.887 31.156-10.946c4.393-3.525 5.097-9.944 1.571-14.337zm78.732 135.412c-2.57-5.011-8.718-6.991-13.729-4.419-29.909 15.341-62.244 23.12-96.106 23.12-5.633 0-10.198 4.566-10.198 10.198 0 5.633 4.566 10.198 10.198 10.198 37.131 0 72.598-8.535 105.415-25.369 5.011-2.57 6.99-8.717 4.42-13.728zm39.534-28.871c-3.608-4.327-10.038-4.909-14.363-1.3a214.734 214.734 0 01-7.237 5.774c-4.479 3.417-5.34 9.816-1.924 14.294a10.18 10.18 0 008.116 4.014c2.157 0 4.33-.681 6.177-2.09a231.852 231.852 0 007.932-6.329c4.325-3.608 4.907-10.039 1.299-14.363z"></path>
  </symbol>
  <symbol xmlns="http://www.w3.org/2000/svg" viewBox="0 0 442.326 442.326" id="chocolate-bar">
    <path d="M430.024 68.87l-56.568-56.568C365.523 4.369 354.976 0 343.757 0c-11.218 0-21.766 4.369-29.699 12.302a41.962 41.962 0 00-12.3 30.598 41.91 41.91 0 00-30.597 12.301 41.949 41.949 0 00-12.3 30.598c-11.206-.274-22.305 4.008-30.598 12.3a41.962 41.962 0 00-12.3 30.597c-11.214-.228-22.305 4.008-30.597 12.301h-.001L45.358 281.003l-.023.023-42.279 42.278a9.955 9.955 0 00-2.729 4.671 9.952 9.952 0 00.556 6.629l.002.003c.214.475.463.93.746 1.362a9.968 9.968 0 005.583 4.135l.019.005c.01.005.016.006.023.007l34.258 9.789 9.789 34.258a10 10 0 006.868 6.868l34.254 9.785 9.787 34.255a.328.328 0 00.006.022l.003.01.003.013.004.013.001.005a9.963 9.963 0 005.436 6.284l.012.005a9.978 9.978 0 004.144.904c.909 0 1.834-.125 2.752-.388a9.95 9.95 0 004.451-2.671l42.276-42.276a.25.25 0 00.023-.023l60.658-60.658a10 10 0 0014.142 0l72.278-72.278c3.905-3.905 3.905-10.237 0-14.143l-.85-.85a41.99 41.99 0 006.08-22.677 42 42 0 0030.597-12.3 41.949 41.949 0 0012.3-30.598c11.2.261 22.305-4.008 30.598-12.3a41.95 41.95 0 0012.3-30.598c11.205.209 22.305-4.009 30.597-12.301 7.933-7.933 12.302-18.479 12.302-29.698.001-11.217-4.368-21.764-12.301-29.698zM116.773 413.234l-6.644-23.255a10 10 0 00-6.868-6.868l-34.254-9.785-9.789-34.258a10 10 0 00-6.868-6.868l-23.259-6.646 23.338-23.338 87.681 87.682-23.337 23.336zm118.18-104.038L211.46 200.459c-1.167-5.398-6.488-8.825-11.886-7.662-5.398 1.166-8.829 6.488-7.663 11.886l23.703 109.71-61.362 61.362-87.681-87.681 125.865-125.865 94.752 94.752-52.235 52.235zm180.93-195.071a21.985 21.985 0 01-25.349 4.145 10 10 0 00-13.406 13.406 21.98 21.98 0 01-4.144 25.348 21.978 21.978 0 01-25.348 4.144 9.999 9.999 0 00-13.406 13.406 21.98 21.98 0 01-4.144 25.348 21.98 21.98 0 01-25.348 4.144 10 10 0 00-13.406 13.406 21.972 21.972 0 011.231 16.581l-84.289-84.289a21.97 21.97 0 0116.58 1.231 9.999 9.999 0 0013.406-13.406 21.978 21.978 0 014.144-25.348 21.974 21.974 0 0125.348-4.143 9.999 9.999 0 0013.406-13.406 21.981 21.981 0 014.144-25.349 21.981 21.981 0 0125.348-4.144 10 10 0 0013.406-13.406 21.976 21.976 0 014.144-25.348 21.857 21.857 0 0115.556-6.444 21.857 21.857 0 0115.556 6.444l56.569 56.568a21.857 21.857 0 016.444 15.557 21.854 21.854 0 01-6.442 15.555z"></path>
  </symbol>


<symbol viewBox="0 0 44 68" xmlns="http://www.w3.org/2000/svg" id="line">
<path d="M41.8359 60.0312H35.8594V55.7812H38.5223C39.6225 55.7812 40.5145 54.8893 40.5145 53.7891C40.5145 52.6888 39.6225 51.7969 38.5223 51.7969H35.8594V47.8125H41.1785C42.2787 47.8125 43.1707 46.9205 43.1707 45.8203C43.1707 44.7201 42.2787 43.8281 41.1785 43.8281H35.8594V39.8438H38.5223C39.6225 39.8438 40.5145 38.9518 40.5145 37.8516C40.5145 36.7513 39.6225 35.8594 38.5223 35.8594H35.8594V31.875H41.1785C42.2787 31.875 43.1707 30.983 43.1707 29.8828C43.1707 28.7826 42.2787 27.8906 41.1785 27.8906H35.8594V23.9062H38.5223C39.6225 23.9062 40.5145 23.0143 40.5145 21.9141C40.5145 20.8138 39.6225 19.9219 38.5223 19.9219H35.8594V15.9375H41.1785C42.2787 15.9375 43.1707 15.0455 43.1707 13.9453C43.1707 12.8451 42.2787 11.9531 41.1785 11.9531H35.8594V7.96875H38.5223C39.6225 7.96875 40.5145 7.07678 40.5145 5.97656C40.5145 4.87634 39.6225 3.98438 38.5223 3.98438H35.8594V1.99219C35.8594 0.891969 34.9674 0 33.8672 0C32.767 0 31.875 0.891969 31.875 1.99219V60.0312H24.6821L25.7778 42.5H25.9051C27.0053 42.5 27.8973 41.608 27.8973 40.5078V27.2232C27.8973 22.8007 24.9982 19.0441 21.0014 17.7493C22.7475 16.7048 23.9195 14.7956 23.9195 12.6172C23.9195 9.32171 21.2384 6.64062 17.943 6.64062C14.6475 6.64062 11.9664 9.32171 11.9664 12.6172C11.9664 14.7946 13.1373 16.703 14.882 17.7479C10.8831 19.0415 7.98203 22.7991 7.98203 27.2232V40.5078C7.98203 41.608 8.874 42.5 9.97422 42.5H10.0948L11.1905 60.0312H1.99219C0.891969 60.0312 0 60.9232 0 62.0234V66.0078C0 67.108 0.891969 68 1.99219 68C3.09241 68 3.98438 67.108 3.98438 66.0078V64.0156H39.8438V66.0078C39.8438 67.108 40.7357 68 41.8359 68C42.9362 68 43.8281 67.108 43.8281 66.0078V62.0234C43.8281 60.9232 42.9362 60.0312 41.8359 60.0312ZM17.943 10.625C19.0415 10.625 19.9352 11.5187 19.9352 12.6172C19.9352 13.7157 19.0415 14.6094 17.943 14.6094C16.8445 14.6094 15.9508 13.7157 15.9508 12.6172C15.9508 11.5187 16.8443 10.625 17.943 10.625ZM11.9664 27.2232C11.9664 23.9296 14.646 21.25 17.9398 21.25C21.2334 21.25 23.913 23.9296 23.913 27.2232V38.5156H11.9664V27.2232ZM14.0869 42.5H21.7856L20.6899 60.0312H15.1826L14.0869 42.5Z" fill="black"/>
</symbol>
<symbol viewBox="0 0 64 64" xmlns="http://www.w3.org/2000/svg" id="ground">
<path d="M33.875 30.1811V19.8166H38.025C47.9181 19.8166 55.9666 11.768 55.9666 1.875C55.9666 0.8395 55.1271 0 54.0916 0H48.0646C41.0369 0 34.9411 4.06275 31.9996 9.96225C29.0576 4.06262 22.9615 0 15.9334 0H9.90837C8.87288 0 8.03337 0.8395 8.03337 1.875C8.03337 11.7681 16.082 19.8166 25.975 19.8166H30.125V30.1811C13.3249 31.1521 0 45.0815 0 62.125C0 63.1605 0.8395 64 1.875 64H62.125C63.1605 64 64 63.1605 64 62.125C64 45.0815 50.6751 31.1521 33.875 30.1811ZM48.0646 3.75H52.0933C51.1726 10.692 45.2145 16.0666 38.025 16.0666H33.9981C34.9174 9.12425 40.8751 3.75 48.0646 3.75ZM25.975 16.0666C18.7854 16.0666 12.8272 10.692 11.9067 3.75H15.9334C23.123 3.75 29.0811 9.12463 30.0016 16.0666H25.975ZM3.8105 60.25C4.7385 45.9209 15.2449 38.245 22.0917 35.6657V40.3778C22.0917 40.9499 21.8689 41.4879 21.4641 41.8926L15.4391 47.9176C13.1423 50.2145 13.1423 53.9519 15.4391 56.2487L19.44 60.25H3.8105ZM24.7434 60.25L18.0906 53.5973C17.2543 52.7609 17.2534 51.4065 18.0906 50.5692L24.1156 44.5444C25.2288 43.4314 25.8417 41.9516 25.8417 40.3778V34.5489C27.8536 34.1014 29.9191 33.875 32 33.875C36.9144 33.875 41.6772 35.1336 45.9062 37.5337L35.5223 47.9178C33.2226 50.2174 33.2178 53.9449 35.5223 56.2489L39.5234 60.25H24.7434ZM44.8266 60.25L38.1739 53.5971C37.3382 52.7616 37.3371 51.4062 38.1739 50.5692L49.1001 39.6431C55.6121 44.6034 59.6477 52.1131 60.1879 60.2499H44.8266V60.25Z"/>
</symbol>
  <symbol viewBox="0 0 68 68" xmlns="http://www.w3.org/2000/svg" id="boards">
  <path d="M67.58 64.7842C67.4752 64.6494 64.9503 61.4478 59.6006 58.2906C56.9903 56.75 53.3914 55.0512 48.7861 53.8092C49.7611 50.514 50.8711 45.7687 51.3499 40.1027C51.8914 33.6964 51.5072 27.4363 50.2076 21.4964C48.5791 14.0532 45.5041 7.10361 41.0679 0.840703C40.6944 0.313437 40.0884 0 39.4422 0C38.7961 0 38.1901 0.313305 37.8166 0.840703C36.4181 2.81509 35.155 4.85802 34.0297 6.96283C32.9044 4.85788 31.6415 2.81509 30.2428 0.840703C29.8694 0.313437 29.2633 0 28.6172 0C27.9711 0 27.3651 0.313305 26.9916 0.840703C22.5554 7.10348 19.4804 14.053 17.8518 21.4965C16.5523 27.4364 16.168 33.6964 16.7095 40.1029C17.2019 45.9283 18.3614 50.7807 19.3554 54.0843C15.1095 55.2884 11.6855 56.8436 9.12061 58.2632C3.46718 61.3926 0.622734 64.5502 0.504398 64.683C-0.0175553 65.2692 -0.146649 66.1072 0.174492 66.8232C0.495632 67.5391 1.20737 68 1.99216 68H66.0078C66.7688 68 67.4633 67.5664 67.7976 66.8828C68.1317 66.1992 68.0474 65.3849 67.58 64.7842ZM20.9628 26.9581L34.3264 17.8771C34.7222 19.1401 35.0719 20.4201 35.3722 21.7176L20.5296 31.8038C20.6034 30.2441 20.7425 28.6243 20.9628 26.9581ZM21.9738 21.4539C23.1906 16.3163 25.2642 10.9068 28.6188 5.57441C30.3273 8.279 31.7667 11.0904 32.9405 14.0015L21.9738 21.4539ZM20.4961 36.6438L36.179 25.9865C36.8241 30.3597 36.9548 34.9112 36.5666 39.6274C36.1538 44.6411 35.1975 48.9293 34.323 52.0159C30.2386 52.0394 26.5399 52.4701 23.2384 53.1424C22.2965 50.0504 21.1538 45.3767 20.6797 39.7673C20.5957 38.7749 20.5323 37.7314 20.4961 36.6438ZM34.6735 55.9971C45.4742 55.9971 52.9886 59.0514 57.3905 61.6136C58.8019 62.4352 59.9934 63.2602 60.9717 64.0156H7.43402C12.1776 60.6701 21.2129 55.9971 34.6735 55.9971ZM39.444 5.57441C45.7576 15.5693 48.4302 27.0098 47.3915 39.6274C46.9364 45.1541 45.8212 49.7995 44.8829 52.9247C42.8862 52.5547 40.7358 52.2795 38.4326 52.133C39.2726 48.9847 40.1222 44.8692 40.5251 40.1029C41.0665 33.6965 40.6823 27.4364 39.3827 21.4965C38.6317 18.0636 37.5721 14.7359 36.214 11.532C37.1285 9.54749 38.1975 7.55557 39.444 5.57441Z"/>
  </symbol>
  <symbol viewBox="0 0 35 35" xmlns="http://www.w3.org/2000/svg" id="board">
<path d="M34.5485 0.451516C34.3352 0.238139 34.0379 0.130367 33.7376 0.15814C33.6123 0.16952 30.6209 0.454022 26.5183 1.83108C13.1663 5.94322 4.32974 18.8899 0.220651 28.2558C-0.0379964 28.8743 0.484582 29.7021 1.26676 29.6337L5.80535 29.1922L5.36386 33.7304C5.31549 34.3828 5.94883 35.0699 6.74184 34.7764C23.0466 27.3472 32.9919 15.976 34.8419 1.26228C34.8694 0.961858 34.7619 0.664757 34.5485 0.451516ZM21.4105 22.7881C19.6089 24.4277 17.8329 25.8372 16.1913 27.0245V9.72113C17.9122 8.31082 19.6957 7.16773 21.4105 6.24486V22.7881ZM11.4936 30.0991C9.88016 31.0471 8.5183 31.7389 7.55511 32.1956L7.94776 28.1597C8.00602 27.6346 7.52022 26.9703 6.83797 27.05L2.8034 27.4424C4.16641 24.5507 7.83733 17.8176 14.159 11.5514V28.4322C13.1849 29.0781 12.286 29.6336 11.4936 30.0991ZM31.2232 7.89084C30.0298 11.4275 27.7123 16.5335 23.4428 20.8442V5.2325C26.2239 3.88932 30.4729 2.68533 32.6337 2.36608C32.4266 3.57955 32.0109 5.55616 31.2232 7.89084Z"/>
</symbol>
<symbol  viewBox="0 0 35 35"  xmlns="http://www.w3.org/2000/svg" id="saw">
<path d="M33.8298 12.4181H26.5562C26.5569 12.4117 26.5579 12.4054 26.5586 12.3991C27.405 11.6708 28.0815 10.8061 28.5729 9.82357C28.7304 9.50849 28.7136 9.13433 28.5284 8.8347C28.3432 8.53501 28.016 8.3526 27.6638 8.3526H26.0949C25.7545 7.38962 25.2576 6.50036 24.6109 5.69742C24.6938 4.58516 24.5607 3.4969 24.2137 2.45599C24.1023 2.12181 23.8258 1.86914 23.483 1.78823C23.1401 1.70726 22.7799 1.80971 22.5308 2.05872L21.4191 3.17037C20.5006 2.73129 19.5227 2.45416 18.4992 2.34311C17.7321 1.43955 16.848 0.724357 15.9218 0.261161C15.6067 0.103623 15.2326 0.120427 14.9328 0.30561C14.6333 0.490794 14.4509 0.817932 14.4509 1.17021V2.80684C13.4879 3.14719 12.5986 3.6442 11.7957 4.29082C10.6836 4.20795 9.59509 4.3411 8.55439 4.68809C8.22021 4.79948 7.96754 5.07601 7.88663 5.4188C7.80573 5.76159 7.90804 6.12192 8.15712 6.37094L9.26857 7.48245C8.82922 8.40159 8.55195 9.38016 8.4411 10.4045C7.76013 10.9905 7.18933 11.665 6.73623 12.4182H1.17022C0.608905 12.4182 0.153839 12.8732 0.153839 13.4345V17.5001C0.153839 18.0614 0.608905 18.5164 1.17022 18.5164H2.25435V33.8298C2.25435 34.3911 2.70942 34.8462 3.27073 34.8462H7.33623C7.89754 34.8462 8.35261 34.3911 8.35261 33.8298V30.3847L17.5 26.7258L26.6474 30.3847V33.8298C26.6474 34.3911 27.1024 34.8461 27.6638 34.8461H31.7293C32.2906 34.8461 32.7456 34.3911 32.7456 33.8298V18.5164H33.8298C34.3911 18.5164 34.8461 18.0613 34.8461 17.5V13.4345C34.8461 12.8732 34.3911 12.4181 33.8298 12.4181V12.4181ZM10.0399 11.7226C10.2717 11.5431 10.4147 11.2723 10.4322 10.9796C10.5 9.84511 10.8237 8.77921 11.3944 7.81155C11.6298 7.41232 11.5652 6.90433 11.2376 6.57658L10.9639 6.30291C11.3037 6.29247 11.6479 6.30921 11.9952 6.35318C12.286 6.39004 12.5787 6.29952 12.798 6.10471C13.6472 5.35029 14.631 4.82455 15.722 4.542C16.1704 4.426 16.4836 4.02141 16.4836 3.55822V3.15607C16.7255 3.39404 16.9585 3.65687 17.179 3.94173C17.3585 4.17353 17.6293 4.3165 17.922 4.33398C19.0564 4.40174 20.1223 4.72549 21.0901 5.29615C21.4894 5.53155 21.9973 5.46704 22.325 5.13936L22.5988 4.86562C22.6092 5.20542 22.5925 5.5497 22.5485 5.89697C22.5117 6.18785 22.6022 6.4805 22.797 6.69977C23.5514 7.54905 24.0772 8.53284 24.3597 9.62382C24.4758 10.0722 24.8804 10.3854 25.3436 10.3854H25.7272C25.4937 10.6338 25.2377 10.8659 24.9602 11.0808C24.7284 11.2603 24.5854 11.5311 24.5679 11.8238C24.556 12.023 24.5354 12.2214 24.5072 12.4182H20.3743C20.4871 12.1 20.5491 11.7581 20.5491 11.4018C20.5491 9.72051 19.1813 8.35267 17.5 8.35267C15.8187 8.35267 14.4509 9.72051 14.4509 11.4018C14.4509 11.7581 14.5129 12.1 14.6257 12.4182H9.27331C9.50687 12.1698 9.76239 11.9375 10.0399 11.7226ZM18.5164 11.4017C18.5164 11.9622 18.0604 12.4181 17.5 12.4181C16.9396 12.4181 16.4836 11.9622 16.4836 11.4017C16.4836 10.8413 16.9396 10.3854 17.5 10.3854C18.0604 10.3854 18.5164 10.8413 18.5164 11.4017ZM6.31985 32.8134H4.2871V18.5164H6.31985C6.31985 18.5094 6.31992 28.5516 6.31985 32.8134ZM8.35261 28.1953V23.0667L14.7633 25.631L8.35261 28.1953ZM26.6474 28.1953L20.2367 25.631L26.6474 23.0667V28.1953ZM26.6474 20.8774L17.5 24.5364L8.35261 20.8774V18.5164H26.6474V20.8774ZM30.7129 32.8134H28.6801C28.6801 31.0105 28.6801 20.6905 28.6801 18.5164H30.7129V32.8134ZM32.8134 16.4836H2.18659V14.4509H32.8134V16.4836Z"/>
</symbol>
<symbol viewBox="0 0 35 25" xmlns="http://www.w3.org/2000/svg" id="deliv">
<path d="M26.3553 15.9785C23.944 15.9785 21.9823 17.9402 21.9823 20.3515C21.9823 22.7628 23.944 24.7245 26.3553 24.7245C28.767 24.7245 30.7283 22.7628 30.7283 20.3515C30.7283 17.9402 28.7666 15.9785 26.3553 15.9785ZM26.3553 22.538C25.1494 22.538 24.1688 21.5573 24.1688 20.3515C24.1688 19.1456 25.1494 18.165 26.3553 18.165C27.5611 18.165 28.5418 19.1456 28.5418 20.3515C28.5418 21.5574 27.5611 22.538 26.3553 22.538Z"/>
<path d="M11.4143 15.9785C9.00296 15.9785 7.04129 17.9402 7.04129 20.3515C7.04129 22.7628 9.00296 24.7245 11.4143 24.7245C13.8256 24.7245 15.7873 22.7628 15.7873 20.3515C15.7873 17.9402 13.8256 15.9785 11.4143 15.9785ZM11.4143 22.538C10.2084 22.538 9.22778 21.5573 9.22778 20.3515C9.22778 19.1456 10.2084 18.165 11.4143 18.165C12.6198 18.165 13.6008 19.1456 13.6008 20.3515C13.6008 21.5574 12.6201 22.538 11.4143 22.538Z"/>
<path d="M29.3001 3.4616C29.1143 3.09245 28.7364 2.85956 28.3231 2.85956H22.5653V5.04606H27.6489L30.6258 10.9671L32.5798 9.98456L29.3001 3.4616Z"/>
<path d="M23.0756 19.2947H14.8033V21.4812H23.0756V19.2947Z"/>
<path d="M8.1345 19.2947H4.34464C3.74078 19.2947 3.25143 19.7841 3.25143 20.3879C3.25143 20.9918 3.74084 21.4811 4.34464 21.4811H8.13457C8.73843 21.4811 9.22778 20.9917 9.22778 20.3879C9.22778 19.7841 8.73836 19.2947 8.1345 19.2947Z"/>
<path d="M34.6166 12.6113L32.4662 9.84173C32.2596 9.57497 31.9407 9.41898 31.6029 9.41898H23.6586V1.76628C23.6586 1.16242 23.1692 0.673065 22.5654 0.673065H4.34464C3.74078 0.673065 3.25143 1.16248 3.25143 1.76628C3.25143 2.37007 3.74084 2.85949 4.34464 2.85949H21.4721V10.5122C21.4721 11.1161 21.9616 11.6054 22.5653 11.6054H31.0675L32.6597 13.6563V19.2946H29.635C29.0311 19.2946 28.5418 19.784 28.5418 20.3878C28.5418 20.9917 29.0312 21.481 29.635 21.481H33.7529C34.3567 21.481 34.8461 20.9916 34.8462 20.3878V13.2818C34.8462 13.0391 34.7652 12.803 34.6166 12.6113Z"/>
<path d="M8.06166 13.7556H3.0327C2.42884 13.7556 1.93949 14.245 1.93949 14.8488C1.93949 15.4527 2.42891 15.942 3.0327 15.942H8.06159C8.66546 15.942 9.15481 15.4526 9.15481 14.8488C9.15488 14.245 8.66546 13.7556 8.06166 13.7556Z"/>
<path d="M10.5761 9.45544H1.24706C0.643266 9.45544 0.153847 9.94486 0.153847 10.5487C0.153847 11.1526 0.643266 11.6419 1.24706 11.6419H10.5761C11.18 11.6419 11.6693 11.1525 11.6693 10.5487C11.6693 9.94493 11.18 9.45544 10.5761 9.45544Z"/>
<path d="M12.3617 5.15536H3.0327C2.42884 5.15536 1.93949 5.64478 1.93949 6.24857C1.93949 6.85244 2.42891 7.34179 3.0327 7.34179H12.3617C12.9656 7.34179 13.455 6.85237 13.455 6.24857C13.455 5.64478 12.9656 5.15536 12.3617 5.15536Z"/>
</symbol>

<symbol viewBox="0 0 56 40" xmlns="http://www.w3.org/2000/svg" id="logo">
<path d="M12.5753 18.552C11.5673 18.552 10.6793 18.376 9.91133 18.024C9.14335 17.672 8.55135 17.184 8.13535 16.56C7.71935 15.92 7.51135 15.184 7.51135 14.352C7.51135 13.648 7.65534 13.008 7.94335 12.432C8.24734 11.856 8.64734 11.4 9.14334 11.064C9.65534 10.728 10.2153 10.56 10.8233 10.56C11.3833 10.56 11.8553 10.704 12.2393 10.992C12.6233 11.264 12.8633 11.648 12.9593 12.144C12.1273 12.144 11.4633 12.368 10.9673 12.816C10.4713 13.248 10.2233 13.84 10.2233 14.592C10.2233 15.28 10.4313 15.832 10.8473 16.248C11.2633 16.664 11.8153 16.872 12.5033 16.872C13.3513 16.872 14.0473 16.592 14.5913 16.032C15.1513 15.456 15.4313 14.736 15.4313 13.872C15.4313 13.12 15.2233 12.408 14.8073 11.736C14.3913 11.064 13.7673 10.248 12.9353 9.288C12.0713 8.296 11.4153 7.448 10.9673 6.744C10.5353 6.024 10.3193 5.24 10.3193 4.392C10.3193 3.56 10.5513 2.816 11.0153 2.16C11.4793 1.488 12.1193 0.960001 12.9353 0.576001C13.7513 0.192001 14.6713 0 15.6953 0C16.9913 0 18.0233 0.304001 18.7913 0.912001C19.5753 1.52 19.9673 2.336 19.9673 3.36C19.9673 4.032 19.7993 4.576 19.4633 4.992C19.1273 5.408 18.6873 5.616 18.1433 5.616C17.5353 5.616 17.0473 5.368 16.6793 4.872C16.9833 4.648 17.2233 4.352 17.3993 3.984C17.5753 3.616 17.6633 3.232 17.6633 2.832C17.6633 2.32 17.5113 1.912 17.2073 1.608C16.9033 1.304 16.4873 1.152 15.9593 1.152C15.3193 1.152 14.7913 1.384 14.3753 1.848C13.9753 2.296 13.7753 2.872 13.7753 3.576C13.7753 4.216 13.9593 4.816 14.3273 5.376C14.6953 5.92 15.2713 6.624 16.0553 7.488C16.6953 8.176 17.2073 8.768 17.5913 9.264C17.9913 9.76 18.3273 10.336 18.5993 10.992C18.8873 11.632 19.0313 12.328 19.0313 13.08C19.0313 14.104 18.7433 15.032 18.1673 15.864C17.6073 16.696 16.8313 17.352 15.8393 17.832C14.8633 18.312 13.7753 18.552 12.5753 18.552ZM22.7588 18.264C21.9908 18.264 21.3668 18.024 20.8868 17.544C20.4228 17.064 20.1908 16.344 20.1908 15.384C20.1908 14.984 20.2548 14.464 20.3828 13.824L22.0148 6.12H25.4708L23.7428 14.28C23.6948 14.52 23.6708 14.744 23.6708 14.952C23.6708 15.608 23.9108 15.936 24.3908 15.936C24.8388 15.936 25.2228 15.752 25.5428 15.384C25.8628 15 26.1188 14.48 26.3108 13.824L27.9428 6.12H31.3988L29.6708 14.28C29.6068 14.52 29.5748 14.776 29.5748 15.048C29.5748 15.368 29.6468 15.6 29.7908 15.744C29.9508 15.872 30.2068 15.936 30.5588 15.936C31.0068 15.936 31.3908 15.744 31.7108 15.36C32.0468 14.976 32.3108 14.464 32.5028 13.824H33.5108C32.9188 15.552 32.1828 16.728 31.3028 17.352C30.4388 17.96 29.5668 18.264 28.6868 18.264C27.9988 18.264 27.4468 18.072 27.0308 17.688C26.6308 17.304 26.3908 16.736 26.3108 15.984C25.7668 16.864 25.1908 17.464 24.5828 17.784C23.9908 18.104 23.3828 18.264 22.7588 18.264ZM34.132 6.12H37.588L37.276 7.608C37.82 7.128 38.308 6.76 38.74 6.504C39.188 6.248 39.668 6.12 40.18 6.12C40.692 6.12 41.092 6.296 41.38 6.648C41.684 7 41.836 7.424 41.836 7.92C41.836 8.384 41.684 8.792 41.38 9.144C41.076 9.496 40.652 9.672 40.108 9.672C39.756 9.672 39.516 9.592 39.388 9.432C39.276 9.256 39.188 9.008 39.124 8.688C39.076 8.48 39.028 8.328 38.98 8.232C38.932 8.136 38.844 8.088 38.716 8.088C38.38 8.088 38.092 8.16 37.852 8.304C37.628 8.432 37.332 8.664 36.964 9L35.044 18.12H31.588L34.132 6.12ZM39.3634 24.12C38.6114 24.12 37.9554 23.872 37.3954 23.376C36.8194 22.896 36.5314 22.28 36.5314 21.528C36.5314 20.84 36.7074 20.272 37.0594 19.824C37.4114 19.376 37.8674 19.016 38.4274 18.744C38.9874 18.488 39.7314 18.216 40.6594 17.928L43.5634 4.224C43.8834 2.688 44.4434 1.624 45.2434 1.032C46.0594 0.440001 46.9554 0.144001 47.9314 0.144001C48.6834 0.144001 49.3394 0.392001 49.8994 0.888001C50.4754 1.368 50.7634 1.984 50.7634 2.736C50.7634 3.104 50.7394 3.432 50.6914 3.72H49.5634C49.5954 3.368 49.6114 3.152 49.6114 3.072C49.6114 2.816 49.5234 2.616 49.3474 2.472C49.1714 2.328 48.9554 2.256 48.6994 2.256C48.3634 2.256 48.0354 2.408 47.7154 2.712C47.3954 3 47.1634 3.504 47.0194 4.224L46.6114 6.12H48.3634L48.1954 7.08H46.4194L43.6594 20.04C43.3394 21.592 42.7874 22.656 42.0034 23.232C41.2194 23.824 40.3394 24.12 39.3634 24.12ZM38.8114 21.984C39.4514 21.984 39.9074 21.36 40.1794 20.112L40.4914 18.72C39.6434 19.008 38.9954 19.336 38.5474 19.704C38.0834 20.088 37.8514 20.584 37.8514 21.192C37.8514 21.384 37.9474 21.56 38.1394 21.72C38.3314 21.896 38.5554 21.984 38.8114 21.984ZM3.36 39.264C2.272 39.264 1.44 39 0.864005 38.472C0.288 37.928 0 37.168 0 36.192C0 35.712 0.056 35.256 0.168 34.824L2.73601 22.8L6.28801 22.32L5.13601 27.72C5.58401 27.448 5.952 27.272 6.24001 27.192C6.52801 27.096 6.81601 27.048 7.10401 27.048C8.99201 27.048 9.93603 28.416 9.93603 31.152C9.93603 32.256 9.72001 33.44 9.288 34.704C8.872 35.952 8.168 37.024 7.17601 37.92C6.20001 38.816 4.928 39.264 3.36 39.264ZM4.70401 36.936C5.20001 36.936 5.66401 36.632 6.09601 36.024C6.52801 35.4 6.872 34.632 7.12801 33.72C7.38401 32.792 7.51201 31.904 7.51201 31.056C7.51201 30.416 7.40001 29.872 7.17601 29.424C6.95201 28.976 6.64001 28.752 6.24001 28.752C6.00001 28.752 5.728 28.792 5.42401 28.872C5.136 28.936 4.93601 29.04 4.82401 29.184L3.504 35.28C3.456 35.472 3.432 35.656 3.432 35.832C3.432 36.568 3.85601 36.936 4.70401 36.936ZM14.336 39.216C13.152 39.216 12.216 38.912 11.528 38.304C10.84 37.696 10.496 36.736 10.496 35.424C10.496 34.336 10.72 33.128 11.168 31.8C11.616 30.472 12.336 29.328 13.328 28.368C14.32 27.392 15.568 26.904 17.072 26.904C19.12 26.904 20.144 28.184 20.144 30.744V30.768C20.192 30.784 20.28 30.792 20.408 30.792C20.936 30.792 21.544 30.656 22.232 30.384C22.92 30.096 23.544 29.752 24.104 29.352L24.32 30C23.856 30.496 23.248 30.92 22.496 31.272C21.76 31.608 20.952 31.848 20.072 31.992C19.944 33.448 19.616 34.72 19.088 35.808C18.56 36.896 17.88 37.736 17.048 38.328C16.216 38.92 15.312 39.216 14.336 39.216ZM15.296 37.056C15.68 37.056 16.064 36.84 16.448 36.408C16.832 35.96 17.168 35.36 17.456 34.608C17.744 33.84 17.952 32.992 18.08 32.064C17.648 31.968 17.432 31.632 17.432 31.056C17.432 30.4 17.68 29.968 18.176 29.76C18.144 29.232 18.064 28.872 17.936 28.68C17.808 28.472 17.584 28.368 17.264 28.368C16.736 28.368 16.224 28.752 15.728 29.52C15.232 30.288 14.832 31.208 14.528 32.28C14.224 33.352 14.072 34.296 14.072 35.112C14.072 35.88 14.16 36.4 14.336 36.672C14.512 36.928 14.832 37.056 15.296 37.056ZM24.2589 39.264C23.3469 39.264 22.5869 38.952 21.9789 38.328C21.3709 37.704 21.0669 36.728 21.0669 35.4C21.0669 34.216 21.2989 32.976 21.7629 31.68C22.2429 30.368 22.9469 29.264 23.8749 28.368C24.8189 27.456 25.9389 27 27.2349 27C27.8909 27 28.3789 27.112 28.6989 27.336C29.0189 27.56 29.1789 27.856 29.1789 28.224V28.392L29.4429 27.12H32.8989L31.1709 35.28C31.1069 35.52 31.0749 35.776 31.0749 36.048C31.0749 36.736 31.4029 37.08 32.0589 37.08C32.5069 37.08 32.8909 36.872 33.2109 36.456C33.5469 36.04 33.8109 35.496 34.0029 34.824H35.0109C34.4189 36.552 33.6829 37.728 32.8029 38.352C31.9389 38.96 31.0669 39.264 30.1869 39.264C29.5149 39.264 28.9709 39.08 28.5549 38.712C28.1549 38.328 27.9149 37.776 27.8349 37.056C27.3709 37.712 26.8509 38.248 26.2749 38.664C25.7149 39.064 25.0429 39.264 24.2589 39.264ZM25.8189 36.936C26.2189 36.936 26.6109 36.752 26.9949 36.384C27.3949 36 27.6669 35.48 27.8109 34.824L28.9629 29.4C28.9629 29.192 28.8829 28.992 28.7229 28.8C28.5629 28.592 28.3149 28.488 27.9789 28.488C27.3389 28.488 26.7629 28.864 26.2509 29.616C25.7389 30.352 25.3389 31.248 25.0509 32.304C24.7629 33.344 24.6189 34.264 24.6189 35.064C24.6189 35.864 24.7309 36.376 24.9549 36.6C25.1949 36.824 25.4829 36.936 25.8189 36.936ZM35.6437 27.12H39.0997L38.7877 28.608C39.3317 28.128 39.8197 27.76 40.2517 27.504C40.6997 27.248 41.1797 27.12 41.6917 27.12C42.2037 27.12 42.6037 27.296 42.8917 27.648C43.1957 28 43.3477 28.424 43.3477 28.92C43.3477 29.384 43.1957 29.792 42.8917 30.144C42.5877 30.496 42.1637 30.672 41.6197 30.672C41.2677 30.672 41.0277 30.592 40.8997 30.432C40.7877 30.256 40.6997 30.008 40.6357 29.688C40.5877 29.48 40.5397 29.328 40.4917 29.232C40.4437 29.136 40.3557 29.088 40.2277 29.088C39.8917 29.088 39.6037 29.16 39.3637 29.304C39.1397 29.432 38.8437 29.664 38.4757 30L36.5557 39.12H33.0997L35.6437 27.12ZM45.9152 39.264C45.0032 39.264 44.2432 38.952 43.6352 38.328C43.0272 37.704 42.7232 36.728 42.7232 35.4C42.7232 34.216 42.9552 32.976 43.4192 31.68C43.8992 30.368 44.6032 29.264 45.5312 28.368C46.4752 27.456 47.5952 27 48.8912 27C49.5472 27 50.0352 27.112 50.3552 27.336C50.6752 27.56 50.8352 27.856 50.8352 28.224V28.32L52.0112 22.8L55.5632 22.32L52.8032 35.28C52.7392 35.52 52.7072 35.752 52.7072 35.976C52.7072 36.616 53.0352 36.936 53.6912 36.936C53.9792 36.936 54.2352 36.888 54.4592 36.792C54.3952 37.592 54.1072 38.208 53.5952 38.64C53.0992 39.056 52.5072 39.264 51.8192 39.264C51.1792 39.264 50.6352 39.104 50.1872 38.784C49.7552 38.448 49.4672 37.944 49.3232 37.272C48.3632 38.6 47.2272 39.264 45.9152 39.264ZM47.4752 36.936C47.8272 36.936 48.1792 36.784 48.5312 36.48C48.8992 36.176 49.1712 35.752 49.3472 35.208L49.4432 34.824L50.6192 29.328C50.4752 28.768 50.1472 28.488 49.6352 28.488C48.9952 28.488 48.4192 28.864 47.9072 29.616C47.3952 30.352 46.9952 31.248 46.7072 32.304C46.4192 33.344 46.2752 34.264 46.2752 35.064C46.2752 35.864 46.3872 36.376 46.6112 36.6C46.8512 36.824 47.1392 36.936 47.4752 36.936Z"/>
</symbol>
<symbol viewBox="0 0 38 38" xmlns="http://www.w3.org/2000/svg" id="params">
<path d="M18.2132 0.326128L11.5439 6.99543C11.1091 7.43012 11.1091 8.13505 11.5439 8.56983L14.693 11.7189C14.9565 11.9824 15.3191 12.0865 15.6606 12.0304V15.6602H12.0307C12.088 15.3124 11.9769 14.9502 11.7194 14.6927L8.57027 11.5436C8.13587 11.1091 7.43056 11.1088 6.99586 11.5436L0.326568 18.2128C-0.108205 18.6475 -0.108205 19.3525 0.326568 19.7873L6.99586 26.4566C7.43027 26.891 8.13557 26.8913 8.57027 26.4566L11.7194 23.3074C11.9771 23.0497 12.0879 22.6874 12.0307 22.3399H15.6605V25.9697C15.3191 25.9136 14.9563 26.0177 14.6929 26.2811L11.5438 29.4302C11.1091 29.8649 11.1091 30.5698 11.5438 31.0046L18.2131 37.6739C18.6479 38.1087 19.3528 38.1087 19.7875 37.6739L26.4568 31.0046C26.8912 30.5701 26.8916 29.8649 26.4568 29.4302L23.3077 26.2811C23.0443 26.0177 22.6816 25.9136 22.3402 25.9697V22.3399H25.9701C25.9128 22.6878 26.0239 23.05 26.2815 23.3074L29.4306 26.4566C29.865 26.8911 30.5703 26.8914 31.005 26.4566L37.6743 19.7873C38.109 19.3526 38.109 18.6477 37.6743 18.2129L31.005 11.5436C30.5706 11.1091 29.8653 11.1089 29.4306 11.5436L26.2815 14.6928C26.0237 14.9505 25.9129 15.3128 25.9701 15.6603H22.3402V12.0305C22.6816 12.0865 23.0443 11.9825 23.3077 11.7191L26.4568 8.56998C26.8914 8.1355 26.8915 7.43035 26.4568 6.99557L19.7875 0.326276C19.3528 -0.108571 18.6479 -0.108571 18.2132 0.326128ZM22.5206 9.35736L22.0142 8.85097C21.3157 8.15235 20.1137 8.64694 20.1137 9.63813V16.7735C20.1137 17.3884 20.6121 17.8868 21.2269 17.8868H28.3623C29.3507 17.8868 29.8502 16.687 29.1495 15.9864L28.6431 15.48L30.2178 13.9052L35.3127 19.0001L30.2179 24.0951L28.6432 22.5203L29.1496 22.0139C29.8484 21.315 29.3532 20.1134 28.3623 20.1134H21.2269C20.6121 20.1134 20.1137 20.6118 20.1137 21.2267V28.362C20.1137 29.3538 21.3162 29.8474 22.0141 29.1492L22.5205 28.6428L24.0952 30.2175L19.0004 35.3124L13.9056 30.2174L15.4802 28.6427L15.9867 29.1491C16.6853 29.848 17.8871 29.3529 17.8871 28.362V21.2267C17.8871 20.6118 17.3886 20.1134 16.7738 20.1134H9.63842C8.65005 20.1134 8.15056 21.3132 8.85126 22.0138L9.35765 22.5202L7.78295 24.095L2.68806 19.0001L7.78288 13.9051L9.35758 15.4799L8.85118 15.9863C8.15234 16.6852 8.64753 17.8868 9.63842 17.8868H16.7738C17.3886 17.8868 17.8871 17.3884 17.8871 16.7735V9.63813C17.8871 8.65021 16.6874 8.1502 15.9867 8.85097L15.4802 9.35736L13.9056 7.78266L19.0004 2.68769L24.0952 7.78266L22.5206 9.35736Z"/>
</symbol>


</svg>

