<?xml version="1.0" encoding="utf-8"?>
<svg xmlns="http://www.w3.org/2000/svg" xmlns:xlink="http://www.w3.org/1999/xlink">

<symbol id="sheets" viewBox="0 0 16 15.2" fill="transparent">
	<path  d="M2.4,14.9c0,0,2.9-5.9,9.9-5.3"/>
	<path  d="M4.3,12.3c0,0-0.8-5.4,5.1-5.5c4.5,0.3,6.1,2.7,6.1,2.7s-2,4.3-7,4.8c-1.6,0.1-3.6-1-3.6-1"/>
	<path  d="M2.8,12.1c0,0-0.1-2.2-0.4-3.2S2,5.3,2.7,3.8"/>
	<path  d="M2.3,9.4c0,0-2-1-1.8-3.8S3,0.6,3,0.6s4.1,3.7,0.6,7.9"/>
</symbol>

<symbol id="van" viewBox="0 0 18.2 14.8">
	<path d="M11.2,3.8h3.6c0,0,0.4,0,0.9,0.5c0.2,0.2,0.4,0.5,0.7,0.9c0.5,0.7,1.1,1.4,1.1,1.4s0.4,0.4,0.4,1.1
		s0,3.5,0,3.5s0.1,0.8-1.1,0.8c-0.9,0-5.1,0-6.1,0c-0.1,0-0.2,0-0.2,0"/>
	<path d="M1.9,12h8.3c0.4,0,0.8-0.3,0.8-0.8V3c0-0.4-0.3-0.8-0.8-0.8H1.9C1.4,2.2,1.1,2.6,1.1,3v8.3
		C1.1,11.7,1.4,12,1.9,12z"/>
	<circle  cx="4.7" cy="12.4" r="1.9"/>
	<circle  cx="14.1" cy="12.4" r="1.9"/>
	<g >
		<circle  cx="4" cy="4.2" r="3.7"/>
		<polyline points="2.7,5.5 4.1,4.4 4.1,1.9 		"/>
		<circle cx="4" cy="4.4" r="0.5"/>
	</g>
	<path d="M17.7,8.1h-4c0,0-0.6-0.1-0.6-0.8s0-1.5,0-1.5s0-0.5,0.7-0.5c0.8,0,2.5,0,2.5,0"/>
</symbol>

<symbol  id="cm"  viewBox="0 0 15.2 15.2">
	<path d="M10,3.8c0,0,0.3-3.4-3.8-3.4c-3.2,0-2.5,0-2.5,0S1,0.4,0.4,2.6c0,2,0,5.7,0,6.1s0.6,2.4,3.5,2.4"/>
	<path d="M14.7,6.8c0,0,0,4.6,0,6.3s-1.6,1.6-1.6,1.6s-5,0-6.4,0s-1.5-0.8-1.5-0.8s0-1.7,0-3.4s1.2-1.6,1.2-1.6
		s4.7,0,6.2,0S14.7,8.2,14.7,6.8s-1.4-1.7-1.4-1.7s-7.4,0-9.3,0S0.8,3.7,0.8,3.7L0.4,3.2"/>
	<line x1="8.9" y1="10.8" x2="8.9" y2="9"/>
	<line x1="12.5" y1="10.8" x2="12.5" y2="8.9"/>
	<ellipse cx="5.2" cy="2.9" rx="1" ry="0.4"/>
</symbol>

<symbol id="happy" viewBox="0 0 19.6 20.4">
<circle cx="9.9" cy="10.7" r="9.3"/>
	<rect x="1.8" y="4" transform="matrix(0.6369 0.7709 -0.7709 0.6369 4.6638 -0.2936)"  width="1.6" height="1.5"/>
	<rect x="16.2" y="4" transform="matrix(0.6369 0.7709 -0.7709 0.6369 9.8607 -11.3278)"  width=" 1.6" height="1.5"/>
	<rect stroke="#f2f5f4" x="14.9" y="16.8" transform="matrix(0.5528 0.8333 -0.8333 0.5528 21.8737 -5.1105)"  width="1.6" height="1.5"/>
	
		<ellipse transform="matrix(0.9981 -6.104203e-02 6.104203e-02 0.9981 -0.1956 0.5914)"  cx="9.6" cy="3.5" rx="2.7" ry="3.1"/>
	<path d="M5.2,18.6c0,0-0.1-3.4,0.2-5c0.2-1.5,1-2.4,0.7-3.3c0,0-0.8-1.2-1.4-1.8S1.5,4.8,1.5,4.8S1,4.1,1.5,3.7
		C2,3.4,2.6,3.4,2.8,3.6S5,5.9,5,5.9S7.1,8,9.1,8c2,0,3-0.6,3.3-0.8s1.3-0.8,1.8-1.2s2.5-2,2.5-2s0.7-0.7,1.1-0.5
		c0,0,0.5,0.1,0.7,0.5s-0.6,1.2-0.6,1.2l-2.2,2.2c0,0-2.3,2.6-2.4,4.4c0,0-0.2,1.8,0.2,3.6s1,3.1,1,3.1"/>
</symbol>

<symbol id="lovely">

</symbol>

<symbol id="muscle">

</symbol>

<symbol></symbol>

<symbol></symbol>

<symbol></symbol>

<symbol></symbol>

<symbol></symbol>

</svg>